<?xml version="1.0" encoding="UTF-8" standalone="no"?>
<!-- Uploaded to: SVG Repo, www.svgrepo.com, Generator: SVG Repo Mixer Tools -->

<svg
   width="800px"
   height="800px"
   viewBox="0 0 24 24"
   fill="none"
   version="1.1"
   id="svg2"
   sodipodi:docname="add.svg"
   inkscape:version="1.3 (0e150ed6c4, 2023-07-21)"
   xmlns:inkscape="http://www.inkscape.org/namespaces/inkscape"
   xmlns:sodipodi="http://sodipodi.sourceforge.net/DTD/sodipodi-0.dtd"
   xmlns="http://www.w3.org/2000/svg"
   xmlns:svg="http://www.w3.org/2000/svg">
  <defs
     id="defs2" />
  <sodipodi:namedview
     id="namedview2"
     pagecolor="#ffffff"
     bordercolor="#000000"
     borderopacity="0.25"
     inkscape:showpageshadow="2"
     inkscape:pageopacity="0.0"
     inkscape:pagecheckerboard="0"
     inkscape:deskcolor="#d1d1d1"
     inkscape:zoom="1.03375"
     inkscape:cx="400"
     inkscape:cy="400"
     inkscape:window-width="1920"
     inkscape:window-height="1022"
     inkscape:window-x="0"
     inkscape:window-y="0"
     inkscape:window-maximized="1"
     inkscape:current-layer="svg2" />
  <path
     d="m 10.656133,6.6245305 c 0,-0.7421911 0.601649,-1.3438674 1.343867,-1.3438674 0.742218,0 1.343867,0.6016763 1.343867,1.3438674 v 4.0316025 h 4.031603 c 0.742217,0 1.343867,0.601649 1.343867,1.343867 0,0.742218 -0.60165,1.343867 -1.343867,1.343867 h -4.031603 v 4.031603 c 0,0.742217 -0.601649,1.343867 -1.343867,1.343867 -0.742218,0 -1.343867,-0.60165 -1.343867,-1.343867 V 13.343867 H 6.6245305 C 5.882326,13.343867 5.2806631,12.742218 5.2806631,12 c 0,-0.742218 0.6016763,-1.343867 1.3438674,-1.343867 h 4.0316025 z"
     fill="#0F0F0F"
     id="path1"
     style="fill:#59a559;fill-opacity:1;stroke-width:1.34387" />
  <path
     fill-rule="evenodd"
     clip-rule="evenodd"
     d="M23 12C23 18.0751 18.0751 23 12 23C5.92487 23 1 18.0751 1 12C1 5.92487 5.92487 1 12 1C18.0751 1 23 5.92487 23 12ZM3.00683 12C3.00683 16.9668 7.03321 20.9932 12 20.9932C16.9668 20.9932 20.9932 16.9668 20.9932 12C20.9932 7.03321 16.9668 3.00683 12 3.00683C7.03321 3.00683 3.00683 7.03321 3.00683 12Z"
     fill="#0F0F0F"
     id="path2"
     style="fill:#59a559;fill-opacity:1" />
</svg>
