<?xml version="1.0" encoding="UTF-8" standalone="no"?>
<!-- Uploaded to: SVG Repo, www.svgrepo.com, Generator: SVG Repo Mixer Tools -->

<svg
   fill="#000000"
   height="800px"
   width="800px"
   version="1.1"
   id="Capa_1"
   viewBox="0 0 310.806 310.806"
   xml:space="preserve"
   sodipodi:docname="alert.svg"
   inkscape:version="1.3 (0e150ed6c4, 2023-07-21)"
   xmlns:inkscape="http://www.inkscape.org/namespaces/inkscape"
   xmlns:sodipodi="http://sodipodi.sourceforge.net/DTD/sodipodi-0.dtd"
   xmlns="http://www.w3.org/2000/svg"
   xmlns:svg="http://www.w3.org/2000/svg"><defs
   id="defs1" /><sodipodi:namedview
   id="namedview1"
   pagecolor="#ffffff"
   bordercolor="#000000"
   borderopacity="0.25"
   inkscape:showpageshadow="2"
   inkscape:pageopacity="0.0"
   inkscape:pagecheckerboard="0"
   inkscape:deskcolor="#d1d1d1"
   inkscape:zoom="1.03375"
   inkscape:cx="400"
   inkscape:cy="400"
   inkscape:window-width="1920"
   inkscape:window-height="1022"
   inkscape:window-x="1920"
   inkscape:window-y="0"
   inkscape:window-maximized="1"
   inkscape:current-layer="Capa_1" />&#10;<path
   d="M305.095,229.104L186.055,42.579c-6.713-10.52-18.172-16.801-30.652-16.801c-12.481,0-23.94,6.281-30.651,16.801  L5.711,229.103c-7.145,11.197-7.619,25.39-1.233,37.042c6.386,11.647,18.604,18.883,31.886,18.883h238.079  c13.282,0,25.5-7.235,31.888-18.886C312.714,254.493,312.24,240.301,305.095,229.104z M155.403,253.631  c-10.947,0-19.82-8.874-19.82-19.82c0-10.947,8.874-19.821,19.82-19.821c10.947,0,19.82,8.874,19.82,19.821  C175.223,244.757,166.349,253.631,155.403,253.631z M182.875,115.9l-9.762,65.727c-1.437,9.675-10.445,16.353-20.119,14.916  c-7.816-1.161-13.676-7.289-14.881-14.692l-10.601-65.597c-2.468-15.273,7.912-29.655,23.185-32.123  c15.273-2.468,29.655,7.912,32.123,23.185C183.284,110.192,183.268,113.161,182.875,115.9z"
   id="path1"
   style="fill:#f38c00;fill-opacity:1" />&#10;</svg>
