<?xml version="1.0" encoding="utf-8"?><!-- Uploaded to: SVG Repo, www.svgrepo.com, Generator: SVG Repo Mixer Tools -->
<svg width="800px" height="800px" viewBox="0 0 16 16" fill="none" xmlns="http://www.w3.org/2000/svg">
<path fill-rule="evenodd" clip-rule="evenodd" d="M16 2H0V14H16V2ZM3 6C3.55228 6 4 5.55228 4 5C4 4.44772 3.55228 4 3 4C2.44772 4 2 4.44772 2 5C2 5.55228 2.44772 6 3 6ZM7.5 5C7.5 5.55228 7.05228 6 6.5 6C5.94772 6 5.5 5.55228 5.5 5C5.5 4.44772 5.94772 4 6.5 4C7.05228 4 7.5 4.44772 7.5 5ZM10 6C10.5523 6 11 5.55228 11 5C11 4.44772 10.5523 4 10 4C9.44771 4 9 4.44772 9 5C9 5.55228 9.44771 6 10 6Z" fill="#808080"/>
</svg>