<?xml version="1.0" encoding="UTF-8" standalone="no"?>
<svg
   width="17px"
   height="17px"
   viewBox="0 -0.5 17 17"
   version="1.1"
   class="si-glyph si-glyph-color-picker"
   id="svg3"
   sodipodi:docname="color-picker.svg"
   inkscape:version="1.3 (0e150ed6c4, 2023-07-21)"
   xmlns:inkscape="http://www.inkscape.org/namespaces/inkscape"
   xmlns:sodipodi="http://sodipodi.sourceforge.net/DTD/sodipodi-0.dtd"
   xmlns="http://www.w3.org/2000/svg"
   xmlns:svg="http://www.w3.org/2000/svg">
  <sodipodi:namedview
     id="namedview3"
     pagecolor="#ffffff"
     bordercolor="#000000"
     borderopacity="0.25"
     inkscape:showpageshadow="2"
     inkscape:pageopacity="0.0"
     inkscape:pagecheckerboard="0"
     inkscape:deskcolor="#d1d1d1"
     inkscape:zoom="48"
     inkscape:cx="8.4895833"
     inkscape:cy="8.5"
     inkscape:window-width="1920"
     inkscape:window-height="1020"
     inkscape:window-x="1920"
     inkscape:window-y="0"
     inkscape:window-maximized="1"
     inkscape:current-layer="svg3" />
  <title
     id="title1">1150</title>
  <defs
     id="defs1" />
  <g
     stroke="none"
     stroke-width="1"
     fill="none"
     fill-rule="evenodd"
     id="g3"
     style="fill:#808080;fill-opacity:1">
    <g
       transform="translate(1.000000, 0.000000)"
       fill="#434343"
       id="g2"
       style="fill:#808080;fill-opacity:1">
      <path
         d="M15.308,4.434 C16.22,3.523 16.118,1.939 15.079,0.9 C14.038,-0.139 12.455,-0.242 11.545,0.67 L10.364,1.853 L14.128,5.617 L15.308,4.434 L15.308,4.434 Z"
         class="si-glyph-fill"
         id="path1"
         style="fill:#808080;fill-opacity:1" />
      <path
         d="M5.468,14.276 L11.615,8.128 L12.387,8.9 L13.971,7.314 L8.662,2.005 L7.077,3.589 L7.85,4.362 L1.702,10.508 L0.02,15.201 L0.774,15.955 L5.468,14.276 L5.468,14.276 Z M8.916,5.428 L10.551,7.064 L4.289,13.324 L1.695,14.284 L2.654,11.688 L8.916,5.428 L8.916,5.428 Z"
         class="si-glyph-fill"
         id="path2"
         style="fill:#808080;fill-opacity:1" />
    </g>
  </g>
</svg>
