<?xml version="1.0" encoding="UTF-8" standalone="no"?>
<svg
   xmlns:dc="http://purl.org/dc/elements/1.1/"
   xmlns:cc="http://creativecommons.org/ns#"
   xmlns:rdf="http://www.w3.org/1999/02/22-rdf-syntax-ns#"
   xmlns:svg="http://www.w3.org/2000/svg"
   xmlns="http://www.w3.org/2000/svg"
   xmlns:sodipodi="http://sodipodi.sourceforge.net/DTD/sodipodi-0.dtd"
   xmlns:inkscape="http://www.inkscape.org/namespaces/inkscape"
   version="1.1"
   width="256"
   height="256"
   viewBox="0 0 256 256"
   xml:space="preserve"
   id="svg12"
   sodipodi:docname="dark-mode.svg"
   inkscape:version="1.0.1 (1.0.1+r73)"><metadata
   id="metadata16"><rdf:RDF><cc:Work
       rdf:about=""><dc:format>image/svg+xml</dc:format><dc:type
         rdf:resource="http://purl.org/dc/dcmitype/StillImage" /></cc:Work></rdf:RDF></metadata><sodipodi:namedview
   pagecolor="#ffffff"
   bordercolor="#666666"
   borderopacity="1"
   objecttolerance="10"
   gridtolerance="10"
   guidetolerance="10"
   inkscape:pageopacity="0"
   inkscape:pageshadow="2"
   inkscape:window-width="1920"
   inkscape:window-height="1023"
   id="namedview14"
   showgrid="false"
   inkscape:zoom="3.328125"
   inkscape:cx="128.30047"
   inkscape:cy="128"
   inkscape:window-x="0"
   inkscape:window-y="0"
   inkscape:window-maximized="1"
   inkscape:current-layer="svg12" />
<desc
   id="desc2">Created with Fabric.js 1.7.22</desc>
<defs
   id="defs4">
</defs>
<g
   transform="translate(128 128) scale(0.72 0.72)"
   style="fill:#808080;fill-opacity:1"
   id="g10">
	<g
   style="stroke:none;stroke-width:0;stroke-dasharray:none;stroke-linecap:butt;stroke-linejoin:miter;stroke-miterlimit:10;fill:#808080;fill-rule:nonzero;opacity:1;fill-opacity:1"
   transform="translate(-175.05 -175.05000000000004) scale(3.89 3.89)"
   id="g8">
	<path
   d="M 87.823 60.7 c -0.463 -0.423 -1.142 -0.506 -1.695 -0.214 c -15.834 8.398 -35.266 2.812 -44.232 -12.718 c -8.966 -15.53 -4.09 -35.149 11.101 -44.665 c 0.531 -0.332 0.796 -0.963 0.661 -1.574 c -0.134 -0.612 -0.638 -1.074 -1.259 -1.153 c -9.843 -1.265 -19.59 0.692 -28.193 5.66 C 13.8 12.041 6.356 21.743 3.246 33.35 S 1.732 57.08 7.741 67.487 c 6.008 10.407 15.709 17.851 27.316 20.961 C 38.933 89.486 42.866 90 46.774 90 c 7.795 0 15.489 -2.044 22.42 -6.046 c 8.601 -4.966 15.171 -12.43 18.997 -21.586 C 88.433 61.79 88.285 61.123 87.823 60.7 z"
   style="stroke:none;stroke-width:1;stroke-dasharray:none;stroke-linecap:butt;stroke-linejoin:miter;stroke-miterlimit:10;fill:#808080;fill-rule:nonzero;opacity:1;fill-opacity:1"
   transform=" matrix(1 0 0 1 0 0) "
   stroke-linecap="round"
   id="path6" />
</g>
</g>
</svg>
