<?xml version="1.0" encoding="UTF-8" standalone="no"?>
<svg
   xmlns:dc="http://purl.org/dc/elements/1.1/"
   xmlns:cc="http://creativecommons.org/ns#"
   xmlns:rdf="http://www.w3.org/1999/02/22-rdf-syntax-ns#"
   xmlns:svg="http://www.w3.org/2000/svg"
   xmlns="http://www.w3.org/2000/svg"
   xmlns:sodipodi="http://sodipodi.sourceforge.net/DTD/sodipodi-0.dtd"
   xmlns:inkscape="http://www.inkscape.org/namespaces/inkscape"
   height="511pt"
   viewBox="0 0 511 511.99982"
   width="511pt"
   version="1.1"
   id="svg4"
   sodipodi:docname="filter.svg"
   inkscape:version="1.0.1 (1.0.1+r73)">
  <metadata
     id="metadata10">
    <rdf:RDF>
      <cc:Work
         rdf:about="">
        <dc:format>image/svg+xml</dc:format>
        <dc:type
           rdf:resource="http://purl.org/dc/dcmitype/StillImage" />
      </cc:Work>
    </rdf:RDF>
  </metadata>
  <defs
     id="defs8" />
  <sodipodi:namedview
     pagecolor="#ffffff"
     bordercolor="#666666"
     borderopacity="1"
     objecttolerance="10"
     gridtolerance="10"
     guidetolerance="10"
     inkscape:pageopacity="0"
     inkscape:pageshadow="2"
     inkscape:window-width="1920"
     inkscape:window-height="1023"
     id="namedview6"
     showgrid="false"
     inkscape:zoom="1.2504892"
     inkscape:cx="341.46635"
     inkscape:cy="308.67919"
     inkscape:window-x="0"
     inkscape:window-y="0"
     inkscape:window-maximized="1"
     inkscape:current-layer="svg4" />
  <path
     d="m492.476562 0h-471.976562c-11.046875 0-20 8.953125-20 20 0 55.695312 23.875 108.867188 65.503906 145.871094l87.589844 77.851562c15.1875 13.5 23.898438 32.898438 23.898438 53.222656v195.03125c0 15.9375 17.8125 25.492188 31.089843 16.636719l117.996094-78.660156c5.5625-3.710937 8.90625-9.953125 8.90625-16.640625v-116.367188c0-20.324218 8.710937-39.722656 23.898437-53.222656l87.585938-77.851562c41.628906-37.003906 65.503906-90.175782 65.503906-145.871094 0-11.046875-8.953125-20-19.996094-20zm-72.082031 135.972656-87.585937 77.855469c-23.71875 21.085937-37.324219 51.378906-37.324219 83.113281v105.667969l-77.996094 51.996094v-157.660157c0-31.738281-13.605469-62.03125-37.324219-83.117187l-87.585937-77.851563c-28.070313-24.957031-45.988281-59.152343-50.785156-95.980468h429.386719c-4.796876 36.828125-22.710938 71.023437-50.785157 95.976562zm0 0"
     id="path2"
     style="stroke:#808080;stroke-opacity:1;fill:#808080;fill-opacity:1" />
</svg>
