<?xml version="1.0" encoding="UTF-8" standalone="no"?>
<svg
   xmlns:dc="http://purl.org/dc/elements/1.1/"
   xmlns:cc="http://creativecommons.org/ns#"
   xmlns:rdf="http://www.w3.org/1999/02/22-rdf-syntax-ns#"
   xmlns:svg="http://www.w3.org/2000/svg"
   xmlns="http://www.w3.org/2000/svg"
   xmlns:sodipodi="http://sodipodi.sourceforge.net/DTD/sodipodi-0.dtd"
   xmlns:inkscape="http://www.inkscape.org/namespaces/inkscape"
   height="511pt"
   viewBox="0 0 511 511.99982"
   width="511pt"
   version="1.1"
   id="svg4"
   sodipodi:docname="filter-solid.svg"
   inkscape:version="1.0.1 (1.0.1+r73)">
  <metadata
     id="metadata10">
    <rdf:RDF>
      <cc:Work
         rdf:about="">
        <dc:format>image/svg+xml</dc:format>
        <dc:type
           rdf:resource="http://purl.org/dc/dcmitype/StillImage" />
        <dc:title />
      </cc:Work>
    </rdf:RDF>
  </metadata>
  <defs
     id="defs8" />
  <sodipodi:namedview
     pagecolor="#ffffff"
     bordercolor="#666666"
     borderopacity="1"
     objecttolerance="10"
     gridtolerance="10"
     guidetolerance="10"
     inkscape:pageopacity="0"
     inkscape:pageshadow="2"
     inkscape:window-width="1920"
     inkscape:window-height="1023"
     id="namedview6"
     showgrid="false"
     inkscape:zoom="1.2504892"
     inkscape:cx="341.46635"
     inkscape:cy="308.67919"
     inkscape:window-x="0"
     inkscape:window-y="0"
     inkscape:window-maximized="1"
     inkscape:current-layer="svg4"
     inkscape:document-rotation="0" />
  <path
     d="M 492.47656,0 H 20.5 c -11.046875,0 -20,8.953125 -20,20 0,55.695312 23.875,108.86719 65.503906,145.87109 l 87.589844,77.85157 c 15.1875,13.5 23.89844,32.89843 23.89844,53.22265 v 195.03125 c 0,15.9375 17.8125,25.49219 31.08984,16.63672 l 117.99609,-78.66016 c 5.5625,-3.71093 8.90625,-9.95312 8.90625,-16.64062 V 296.94531 c 0,-20.32422 8.71094,-39.72265 23.89844,-53.22265 l 87.58594,-77.85157 C 488.59766,128.86719 512.47266,75.695312 512.47266,20 c 0,-11.046875 -8.95313,-20 -19.9961,-20 z"
     id="path2"
     style="fill:#bfbfbf;fill-opacity:1;stroke:#808080;stroke-opacity:1"
     sodipodi:nodetypes="sssccssccssccss" />
</svg>
