<?xml version="1.0" encoding="UTF-8" standalone="no"?>
<svg
   version="1.1"
   id="Capa_1"
   x="0px"
   y="0px"
   viewBox="0 0 16 16"
   xml:space="preserve"
   sodipodi:docname="gear.svg"
   inkscape:version="1.3.2 (091e20ef0f, 2023-11-25, custom)"
   width="16"
   height="16"
   xmlns:inkscape="http://www.inkscape.org/namespaces/inkscape"
   xmlns:sodipodi="http://sodipodi.sourceforge.net/DTD/sodipodi-0.dtd"
   xmlns="http://www.w3.org/2000/svg"
   xmlns:svg="http://www.w3.org/2000/svg"
   xmlns:rdf="http://www.w3.org/1999/02/22-rdf-syntax-ns#"
   xmlns:cc="http://creativecommons.org/ns#"
   xmlns:dc="http://purl.org/dc/elements/1.1/"><metadata
   id="metadata39"><rdf:RDF><cc:Work
       rdf:about=""><dc:format>image/svg+xml</dc:format><dc:type
         rdf:resource="http://purl.org/dc/dcmitype/StillImage" /></cc:Work></rdf:RDF></metadata><defs
   id="defs37" /><sodipodi:namedview
   pagecolor="#ffffff"
   bordercolor="#666666"
   borderopacity="1"
   objecttolerance="10"
   gridtolerance="10"
   guidetolerance="10"
   inkscape:pageopacity="0"
   inkscape:pageshadow="2"
   inkscape:window-width="3432"
   inkscape:window-height="1364"
   id="namedview35"
   showgrid="false"
   inkscape:zoom="19.06971"
   inkscape:cx="43.629399"
   inkscape:cy="15.679315"
   inkscape:window-x="0"
   inkscape:window-y="0"
   inkscape:window-maximized="1"
   inkscape:current-layer="Capa_1"
   inkscape:showpageshadow="2"
   inkscape:pagecheckerboard="0"
   inkscape:deskcolor="#d1d1d1" />
<path
   style="fill:#808080;fill-opacity:1;stroke-width:0.0316672"
   d="M 15.722386,9.753309 14.21219,8.6033146 c 0.04682,-0.4013664 0.04682,-0.806622 0,-1.2079883 l 1.511575,-1.1506591 c 0.283261,-0.222154 0.358962,-0.6117173 0.178679,-0.9193359 L 14.331309,2.6806776 C 14.150352,2.3711144 13.764949,2.2359266 13.422868,2.362019 L 11.642922,3.0593609 C 11.308446,2.8230531 10.950159,2.620456 10.573581,2.4547083 L 10.30043,0.61336572 C 10.25117,0.2598763 9.9397362,-0.00288076 9.5733952,2.3846903e-5 H 6.4242899 C 6.0609976,-0.00243769 5.7520647,0.25771014 5.7013631,0.60802417 L 5.4275367,2.4546836 C 5.0521139,2.6220191 4.6944056,2.8247638 4.359576,3.0600132 L 2.5748167,2.3613297 C 2.2362653,2.2313604 1.8512152,2.3650221 1.6732112,2.6739822 L 0.10069625,5.3233252 C -0.084432,5.6314484 -0.00821822,6.0252948 0.27937428,6.2466733 L 1.7895701,7.3966678 c -0.047269,0.4013417 -0.047269,0.8066466 0,1.2079883 L 0.27799447,9.7546506 c -0.2837413,0.2218463 -0.35979509,0.6116314 -0.17935201,0.9193474 l 1.57046094,2.645343 c 0.180732,0.309773 0.5663596,0.445059 0.9084408,0.318647 l 1.7799457,-0.697342 c 0.3347655,0.236443 0.6932763,0.439249 1.0700148,0.605341 l 0.2738264,1.840001 c 0.048197,0.352567 0.3577083,0.615435 0.7229268,0.613995 h 3.1491053 c 0.3639668,0.0025 0.6738938,-0.257059 0.7249808,-0.608001 l 0.273825,-1.846647 c 0.375391,-0.167409 0.733068,-0.370154 1.067962,-0.605342 l 1.78678,0.699348 c 0.338552,0.12965 0.723409,-0.0037 0.901606,-0.312664 l 1.577296,-2.659989 C 16.082405,10.3595 16.00478,9.973063 15.722386,9.753309 Z m -7.7235594,1.58 c -1.8904321,0 -3.4229626,-1.4923691 -3.4229626,-3.3333301 0,-1.840961 1.5324985,-3.3333433 3.4229626,-3.3333433 1.890464,0 3.4229624,1.4923823 3.4229624,3.3333433 -0.0022,1.8400502 -1.5334608,3.3311401 -3.4229624,3.3333301 z"
   id="path2" />
<g
   id="g4"
   transform="translate(-1.5,-1.5)">
</g>
<g
   id="g6"
   transform="translate(-1.5,-1.5)">
</g>
<g
   id="g8"
   transform="translate(-1.5,-1.5)">
</g>
<g
   id="g10"
   transform="translate(-1.5,-1.5)">
</g>
<g
   id="g12"
   transform="translate(-1.5,-1.5)">
</g>
<g
   id="g14"
   transform="translate(-1.5,-1.5)">
</g>
<g
   id="g16"
   transform="translate(-1.5,-1.5)">
</g>
<g
   id="g18"
   transform="translate(-1.5,-1.5)">
</g>
<g
   id="g20"
   transform="translate(-1.5,-1.5)">
</g>
<g
   id="g22"
   transform="translate(-1.5,-1.5)">
</g>
<g
   id="g24"
   transform="translate(-1.5,-1.5)">
</g>
<g
   id="g26"
   transform="translate(-1.5,-1.5)">
</g>
<g
   id="g28"
   transform="translate(-1.5,-1.5)">
</g>
<g
   id="g30"
   transform="translate(-1.5,-1.5)">
</g>
<g
   id="g32"
   transform="translate(-1.5,-1.5)">
</g>
</svg>
