<?xml version="1.0" encoding="UTF-8" standalone="no"?>
<svg
   version="1.1"
   id="Capa_1"
   x="0px"
   y="0px"
   viewBox="0 0 16 16"
   xml:space="preserve"
   sodipodi:docname="grid.svg"
   inkscape:version="1.3.2 (091e20ef0f, 2023-11-25, custom)"
   width="16"
   height="16"
   xmlns:inkscape="http://www.inkscape.org/namespaces/inkscape"
   xmlns:sodipodi="http://sodipodi.sourceforge.net/DTD/sodipodi-0.dtd"
   xmlns="http://www.w3.org/2000/svg"
   xmlns:svg="http://www.w3.org/2000/svg"
   xmlns:rdf="http://www.w3.org/1999/02/22-rdf-syntax-ns#"
   xmlns:cc="http://creativecommons.org/ns#"
   xmlns:dc="http://purl.org/dc/elements/1.1/"><metadata
   id="metadata44"><rdf:RDF><cc:Work
       rdf:about=""><dc:format>image/svg+xml</dc:format><dc:type
         rdf:resource="http://purl.org/dc/dcmitype/StillImage" /></cc:Work></rdf:RDF></metadata><defs
   id="defs42" /><sodipodi:namedview
   pagecolor="#ffffff"
   bordercolor="#666666"
   borderopacity="1"
   objecttolerance="10"
   gridtolerance="10"
   guidetolerance="10"
   inkscape:pageopacity="0"
   inkscape:pageshadow="2"
   inkscape:window-width="3432"
   inkscape:window-height="1364"
   id="namedview40"
   showgrid="false"
   inkscape:zoom="37.299883"
   inkscape:cx="9.0348809"
   inkscape:cy="12.332478"
   inkscape:window-x="0"
   inkscape:window-y="0"
   inkscape:window-maximized="1"
   inkscape:current-layer="Capa_1"
   inkscape:document-rotation="0"
   inkscape:showpageshadow="2"
   inkscape:pagecheckerboard="0"
   inkscape:deskcolor="#d1d1d1"
   showguides="true" />
<linearGradient
   id="SVGID_1_"
   gradientUnits="userSpaceOnUse"
   x1="256"
   y1="464"
   x2="256"
   y2="52"
   gradientTransform="matrix(1,0,0,-1,0,514)">
	<stop
   offset="0"
   style="stop-color:#067b44;stop-opacity:1"
   id="stop2" />
	<stop
   offset="1"
   style="stop-color:#9f7f00;stop-opacity:1"
   id="stop4" />
</linearGradient>
<g
   id="g1"
   transform="scale(0.03125)"><rect
     style="fill:#808080;fill-opacity:1;stroke-width:0.653635"
     id="rect848"
     width="158.65096"
     height="452.74838"
     x="-181.30275"
     y="30.354509"
     ry="63.495949"
     transform="rotate(-90)" /><path
     style="fill:#808080;fill-opacity:1;stroke-width:1.11477"
     d="m 0,60 v 392 c 0,33.084 33.449009,60 74.563102,60 H 437.4369 C 478.55099,512 512,485.084 512,452 V 60 C 512,26.916 478.55099,0 437.4369,0 H 74.563102 C 33.449009,0 0,26.916 0,60 Z M 74.563102,40 H 151.61164 V 155 H 49.708737 V 60 c 0,-11.028 11.14967,-20 24.854365,-20 z M 310.6796,316 H 201.32039 V 195 H 310.6796 Z M 360.38835,195 H 462.29126 V 316 H 360.38835 Z M 310.6796,356 V 472 H 201.32039 V 356 Z M 151.61164,316 H 49.708737 V 195 H 151.61164 Z M 201.32039,155 V 40 H 310.6796 V 155 Z M 49.708737,452 V 356 H 151.61164 V 472 H 74.563102 C 60.858407,472 49.708737,463.028 49.708737,452 Z M 437.4369,472 H 360.38835 V 356 h 101.90291 v 96 c 0,11.028 -11.14966,20 -24.85436,20 z M 462.29126,60 v 95 H 360.38835 V 40 h 77.04855 c 13.7047,0 24.85436,8.972 24.85436,20 z"
     id="path7" /></g>
<g
   id="g9"
   transform="matrix(0,-1.230769,1.5294994,0,-78.321121,628.30757)">
</g>
<g
   id="g11"
   transform="matrix(0,-1.230769,1.5294994,0,-78.321121,628.30757)">
</g>
<g
   id="g13"
   transform="matrix(0,-1.230769,1.5294994,0,-78.321121,628.30757)">
</g>
<g
   id="g15"
   transform="matrix(0,-1.230769,1.5294994,0,-78.321121,628.30757)">
</g>
<g
   id="g17"
   transform="matrix(0,-1.230769,1.5294994,0,-78.321121,628.30757)">
</g>
<g
   id="g19"
   transform="matrix(0,-1.230769,1.5294994,0,-78.321121,628.30757)">
</g>
<g
   id="g21"
   transform="matrix(0,-1.230769,1.5294994,0,-78.321121,628.30757)">
</g>
<g
   id="g23"
   transform="matrix(0,-1.230769,1.5294994,0,-78.321121,628.30757)">
</g>
<g
   id="g25"
   transform="matrix(0,-1.230769,1.5294994,0,-78.321121,628.30757)">
</g>
<g
   id="g27"
   transform="matrix(0,-1.230769,1.5294994,0,-78.321121,628.30757)">
</g>
<g
   id="g29"
   transform="matrix(0,-1.230769,1.5294994,0,-78.321121,628.30757)">
</g>
<g
   id="g31"
   transform="matrix(0,-1.230769,1.5294994,0,-78.321121,628.30757)">
</g>
<g
   id="g33"
   transform="matrix(0,-1.230769,1.5294994,0,-78.321121,628.30757)">
</g>
<g
   id="g35"
   transform="matrix(0,-1.230769,1.5294994,0,-78.321121,628.30757)">
</g>
<g
   id="g37"
   transform="matrix(0,-1.230769,1.5294994,0,-78.321121,628.30757)">
</g>
</svg>
