<?xml version="1.0" encoding="UTF-8" standalone="no"?>
<svg
   xmlns:dc="http://purl.org/dc/elements/1.1/"
   xmlns:cc="http://creativecommons.org/ns#"
   xmlns:rdf="http://www.w3.org/1999/02/22-rdf-syntax-ns#"
   xmlns:svg="http://www.w3.org/2000/svg"
   xmlns="http://www.w3.org/2000/svg"
   xmlns:sodipodi="http://sodipodi.sourceforge.net/DTD/sodipodi-0.dtd"
   xmlns:inkscape="http://www.inkscape.org/namespaces/inkscape"
   version="1.1"
   id="Capa_1"
   x="0px"
   y="0px"
   viewBox="0 0 512 512"
   style="enable-background:new 0 0 512 512;"
   xml:space="preserve"
   sodipodi:docname="grid.svg"
   inkscape:version="1.0.1 (3bc2e813f5, 2020-09-07)"><metadata
   id="metadata44"><rdf:RDF><cc:Work
       rdf:about=""><dc:format>image/svg+xml</dc:format><dc:type
         rdf:resource="http://purl.org/dc/dcmitype/StillImage" /></cc:Work></rdf:RDF></metadata><defs
   id="defs42" /><sodipodi:namedview
   pagecolor="#ffffff"
   bordercolor="#666666"
   borderopacity="1"
   objecttolerance="10"
   gridtolerance="10"
   guidetolerance="10"
   inkscape:pageopacity="0"
   inkscape:pageshadow="2"
   inkscape:window-width="1920"
   inkscape:window-height="1027"
   id="namedview40"
   showgrid="false"
   inkscape:zoom="0.82421875"
   inkscape:cx="117.89253"
   inkscape:cy="264.67042"
   inkscape:window-x="3840"
   inkscape:window-y="0"
   inkscape:window-maximized="1"
   inkscape:current-layer="Capa_1"
   inkscape:document-rotation="0" />
<linearGradient
   id="SVGID_1_"
   gradientUnits="userSpaceOnUse"
   x1="256"
   y1="464"
   x2="256"
   y2="52"
   gradientTransform="matrix(1 0 0 -1 0 514)">
	<stop
   offset="0"
   style="stop-color:#067b44;stop-opacity:1"
   id="stop2" />
	<stop
   offset="1"
   style="stop-color:#9f7f00;stop-opacity:1"
   id="stop4" />
</linearGradient>
<rect
   style="fill:#808080;fill-opacity:1;stroke-width:0.586339"
   id="rect848"
   width="158.65096"
   height="364.32095"
   x="-181.30275"
   y="74.425896"
   ry="51.094398"
   transform="rotate(-90)" /><path
   style="fill:#808080;fill-opacity:1"
   d="m 50,60 v 392 c 0,33.084 26.916,60 60,60 h 292 c 33.084,0 60,-26.916 60,-60 V 60 C 462,26.916 435.084,0 402,0 H 110 C 76.916,0 50,26.916 50,60 Z m 60,-20 h 62 V 155 H 90 V 60 C 90,48.972 98.972,40 110,40 Z M 300,316 H 212 V 195 h 88 z m 40,-121 h 82 V 316 H 340 Z M 300,356 V 472 H 212 V 356 Z M 172,316 H 90 V 195 h 82 z M 212,155 V 40 h 88 V 155 Z M 90,452 v -96 h 82 v 116 h -62 c -11.028,0 -20,-8.972 -20,-20 z m 312,20 H 340 V 356 h 82 v 96 c 0,11.028 -8.972,20 -20,20 z M 422,60 v 95 H 340 V 40 h 62 c 11.028,0 20,8.972 20,20 z"
   id="path7" />
<g
   id="g9"
   transform="rotate(-90,256,256)">
</g>
<g
   id="g11"
   transform="rotate(-90,256,256)">
</g>
<g
   id="g13"
   transform="rotate(-90,256,256)">
</g>
<g
   id="g15"
   transform="rotate(-90,256,256)">
</g>
<g
   id="g17"
   transform="rotate(-90,256,256)">
</g>
<g
   id="g19"
   transform="rotate(-90,256,256)">
</g>
<g
   id="g21"
   transform="rotate(-90,256,256)">
</g>
<g
   id="g23"
   transform="rotate(-90,256,256)">
</g>
<g
   id="g25"
   transform="rotate(-90,256,256)">
</g>
<g
   id="g27"
   transform="rotate(-90,256,256)">
</g>
<g
   id="g29"
   transform="rotate(-90,256,256)">
</g>
<g
   id="g31"
   transform="rotate(-90,256,256)">
</g>
<g
   id="g33"
   transform="rotate(-90,256,256)">
</g>
<g
   id="g35"
   transform="rotate(-90,256,256)">
</g>
<g
   id="g37"
   transform="rotate(-90,256,256)">
</g>
</svg>
