<?xml version="1.0" encoding="UTF-8" standalone="no"?>
<svg
   fill="#808080"
   width="64px"
   height="64px"
   viewBox="0 0 36 36"
   version="1.1"
   preserveAspectRatio="xMidYMid meet"
   stroke="#808080"
   id="svg1"
   sodipodi:docname="job-task.svg"
   inkscape:version="1.4.2 (ebf0e940d0, 2025-05-08)"
   xmlns:inkscape="http://www.inkscape.org/namespaces/inkscape"
   xmlns:sodipodi="http://sodipodi.sourceforge.net/DTD/sodipodi-0.dtd"
   xmlns="http://www.w3.org/2000/svg"
   xmlns:svg="http://www.w3.org/2000/svg">
  <defs
     id="defs1" />
  <sodipodi:namedview
     id="namedview1"
     pagecolor="#ffffff"
     bordercolor="#000000"
     borderopacity="0.25"
     inkscape:showpageshadow="2"
     inkscape:pageopacity="0.0"
     inkscape:pagecheckerboard="0"
     inkscape:deskcolor="#d1d1d1"
     inkscape:zoom="17.96875"
     inkscape:cx="32"
     inkscape:cy="32"
     inkscape:window-width="3432"
     inkscape:window-height="1364"
     inkscape:window-x="0"
     inkscape:window-y="0"
     inkscape:window-maximized="1"
     inkscape:current-layer="svg1" />
  <g
     id="SVGRepo_bgCarrier"
     stroke-width="0" />
  <g
     id="SVGRepo_tracerCarrier"
     stroke-linecap="round"
     stroke-linejoin="round" />
  <g
     id="SVGRepo_iconCarrier"
     transform="matrix(1.0878611,0,0,1.0878611,-1.5814998,-1.5799355)">
    <title
       id="title1">tasks-solid</title>
    <path
       class="clr-i-solid clr-i-solid-path-1"
       d="m 29.29,4.95 h -7.2 a 4.31,4.31 0 0 0 -8.17,0 H 7 A 1.75,1.75 0 0 0 5,6.64 v 25.62 a 1.7,1.7 0 0 0 1.71,1.69 H 29.29 A 1.7,1.7 0 0 0 31,32.26 V 6.64 A 1.7,1.7 0 0 0 29.29,4.95 Z m -18,3 a 1,1 0 0 1 1,-1 h 3.44 V 6.32 a 2.315,2.315 0 0 1 4.63,0 V 7 h 3.44 a 1,1 0 0 1 1,1 V 9.8 H 11.25 Z m 14.52,9.23 -9.12,9.12 -5.24,-5.24 a 1.4142136,1.4142136 0 0 1 2,-2 l 3.26,3.26 7.14,-7.14 a 1.4142136,1.4142136 0 1 1 2,2 z"
       id="path1" />
  </g>
</svg>
