<?xml version="1.0" encoding="UTF-8" standalone="no"?>
<!-- Uploaded to: SVG Repo, www.svgrepo.com, Generator: SVG Repo Mixer Tools -->

<svg
   width="229.88376"
   height="225.65627"
   viewBox="-18.458 -22.75 54.928138 53.918028"
   version="1.1"
   id="svg5"
   sodipodi:docname="mysql.svg"
   inkscape:version="1.3.2 (091e20ef0f, 2023-11-25, custom)"
   xmlns:inkscape="http://www.inkscape.org/namespaces/inkscape"
   xmlns:sodipodi="http://sodipodi.sourceforge.net/DTD/sodipodi-0.dtd"
   xmlns="http://www.w3.org/2000/svg"
   xmlns:svg="http://www.w3.org/2000/svg">
  <defs
     id="defs5" />
  <sodipodi:namedview
     id="namedview5"
     pagecolor="#ffffff"
     bordercolor="#000000"
     borderopacity="0.25"
     inkscape:showpageshadow="2"
     inkscape:pageopacity="0.0"
     inkscape:pagecheckerboard="0"
     inkscape:deskcolor="#d1d1d1"
     inkscape:zoom="1.44125"
     inkscape:cx="385.42931"
     inkscape:cy="264.70078"
     inkscape:window-width="3431"
     inkscape:window-height="1363"
     inkscape:window-x="0"
     inkscape:window-y="0"
     inkscape:window-maximized="1"
     inkscape:current-layer="svg5" />
  <path
     d="m -21.90057,-25.74716 h 191.151 v 132.49 h -191.151 z"
     fill="none"
     id="path1" />
  <path
     d="m 32.133138,18.952026 c -2.99,-0.076 -5.305,0.225 -7.248,1.047 -0.561,0.224 -1.453,0.224 -1.531,0.933 0.303,0.3 0.338,0.784 0.601,1.198 0.448,0.747 1.229,1.752 1.942,2.276 0.783,0.6 1.569,1.194 2.393,1.717 1.453,0.899 3.1,1.422 4.516,2.318 0.825,0.521 1.645,1.195 2.471,1.756 0.406,0.299 0.666,0.784 1.193,0.971 v -0.114 c -0.264,-0.336 -0.339,-0.822 -0.598,-1.196 l -1.122,-1.082 c -1.084,-1.456 -2.431,-2.727 -3.884,-3.771 -1.196,-0.824 -3.812,-1.944 -4.297,-3.322 l -0.076,-0.076 c 0.822,-0.077 1.797,-0.375 2.578,-0.604 1.271,-0.335 2.43,-0.259 3.734,-0.594 0.6,-0.15 1.195,-0.338 1.797,-0.523 v -0.337 c -0.676,-0.673 -1.158,-1.567 -1.869,-2.203 -1.902,-1.643 -3.998,-3.25 -6.164,-4.595 -1.16,-0.749 -2.652,-1.231 -3.887,-1.868 -0.445,-0.225 -1.195,-0.336 -1.457,-0.71 -0.67,-0.8219998 -1.047,-1.9039998 -1.533,-2.8769998 -1.08,-2.053 -2.129,-4.331 -3.061,-6.50200004 -0.674,-1.456 -1.084,-2.90999996 -1.906,-4.25699996 -3.85,-6.35 -8.0309998,-10.1960002 -14.45699959,-13.9710002 -1.38100001,-0.786 -3.02400001,-1.121 -4.77900001,-1.533 l -2.803,-0.148 c -0.598,-0.262 -1.197,-0.973 -1.719,-1.309 -2.1320004,-1.344 -7.6210004,-4.257 -9.1890004,-0.411 -1.01,2.431 1.494,4.821 2.354,6.054 0.635,0.856 1.458,1.83 1.902,2.802 0.263,0.635 0.337,1.309 0.6,1.9800002 0.598,1.644 1.157,3.473 1.943,5.007 0.41,0.782 0.857,1.604 1.381,2.312 0.3000004,0.414 0.8220004,0.597 0.9360004,1.272 -0.521,0.74399996 -0.562,1.86699996 -0.861,2.801 -1.3440004,4.221 -0.8190004,9.4499998 1.086,12.5519998 0.596,0.934 2.018,2.99 3.92,2.202 1.684,-0.672 1.311,-2.801 1.795,-4.668 0.111,-0.451 0.038,-0.747 0.262,-1.043 v 0.073 c 0.521,1.045 1.047,2.052 1.53,3.1 1.15900001,1.829 3.177,3.735 4.858,5.002 0.895,0.676 1.604,1.832 2.725,2.245 v -0.112 h -0.074 c -0.227,-0.335 -0.559,-0.485 -0.857,-0.745 -0.674,-0.673 -1.42,-1.495 -1.943,-2.241 -1.566,-2.093 -2.95199999,-4.41 -4.18199999,-6.801 C -1.4488616,9.7970262 -1.9678616,8.5290262 -2.4528616,7.3710262 c -0.226,-0.447 -0.226,-1.121 -0.601,-1.346 -0.562,0.821 -1.381,1.532 -1.791,2.538 -0.711,1.6089998 -0.785,3.5879998 -1.049,5.6459998 l -0.147,0.072 c -1.19,-0.299 -1.604,-1.53 -2.056,-2.575 -1.119,-2.6539998 -1.307,-6.9139998 -0.336,-9.9759998 0.26,-0.78300004 1.385,-3.249 0.936,-3.995 -0.225,-0.715 -0.973,-1.122 -1.383,-1.685 -0.482,-0.708 -1.01,-1.604 -1.3460004,-2.39 -0.896,-2.091 -1.347,-4.4080002 -2.312,-6.4980002 -0.451,-0.974 -1.234,-1.982 -1.868,-2.879 -0.712,-1.008 -1.495,-1.718 -2.058,-2.913 -0.186,-0.411 -0.447,-1.083 -0.148,-1.53 0.073,-0.3 0.225,-0.412 0.523,-0.487 0.484,-0.409 1.867,0.111 2.352,0.336 1.385,0.56 2.543,1.083 3.699,1.867 0.5230004,0.375 1.0840004,1.085 1.7550004,1.272 h 0.786 c 1.193,0.26 2.538,0.072 3.661,0.41 1.979,0.636 3.77200001,1.569 5.38,2.576 4.893,3.103 8.9279996,7.5120002 11.6519996,12.7780002 0.447,0.85799996 0.637,1.64399996 1.045,2.539 0.787,1.832 1.76,3.7 2.541,5.493 0.785,1.755 1.533,3.5469998 2.654,5.0049998 0.559,0.784 2.805,1.195 3.812,1.606 0.745,0.335 1.905,0.633 2.577,1.044 1.271,0.783 2.537,1.682 3.732,2.543 0.595,0.448 2.465,1.382 2.576,2.13 m -38.1059996,-32.464 a 5.82,5.82 0 0 0 -1.529,0.188 v 0.075 h 0.072 c 0.301,0.597 0.824,1.011 1.197,1.532 0.301,0.599 0.562,1.193 0.857,1.7910002 l 0.072,-0.074 c 0.527,-0.3730002 0.789,-0.9710002 0.789,-1.8680002 -0.227,-0.264 -0.262,-0.522 -0.451,-0.784 -0.22,-0.374 -0.705,-0.56 -1.007,-0.86"
     fill="#5d87a1"
     id="path4" />
</svg>
