<?xml version="1.0" encoding="UTF-8" standalone="no"?>
<svg
   xmlns:dc="http://purl.org/dc/elements/1.1/"
   xmlns:cc="http://creativecommons.org/ns#"
   xmlns:rdf="http://www.w3.org/1999/02/22-rdf-syntax-ns#"
   xmlns:svg="http://www.w3.org/2000/svg"
   xmlns="http://www.w3.org/2000/svg"
   xmlns:sodipodi="http://sodipodi.sourceforge.net/DTD/sodipodi-0.dtd"
   xmlns:inkscape="http://www.inkscape.org/namespaces/inkscape"
   version="1.1"
   id="Layer_1"
   x="0px"
   y="0px"
   viewBox="0 0 473.654 473.654"
   style="enable-background:new 0 0 473.654 473.654;"
   xml:space="preserve"
   sodipodi:docname="override2.svg"
   inkscape:version="1.0.2 (1.0.2+r75+1)"><metadata
   id="metadata41"><rdf:RDF><cc:Work
       rdf:about=""><dc:format>image/svg+xml</dc:format><dc:type
         rdf:resource="http://purl.org/dc/dcmitype/StillImage" /></cc:Work></rdf:RDF></metadata><defs
   id="defs39" /><sodipodi:namedview
   pagecolor="#ffffff"
   bordercolor="#666666"
   borderopacity="1"
   objecttolerance="10"
   gridtolerance="10"
   guidetolerance="10"
   inkscape:pageopacity="0"
   inkscape:pageshadow="2"
   inkscape:window-width="1920"
   inkscape:window-height="1023"
   id="namedview37"
   showgrid="false"
   inkscape:zoom="1.2719305"
   inkscape:cx="185.80143"
   inkscape:cy="261.26766"
   inkscape:window-x="0"
   inkscape:window-y="0"
   inkscape:window-maximized="1"
   inkscape:current-layer="Layer_1" />
<circle
   style="fill:#c97324;fill-opacity:1"
   cx="-36.958073"
   cy="-332.8786"
   id="circle2"
   transform="matrix(0.62476097,-0.78081606,-0.78081606,-0.62476097,0,0)"
   r="236.827" />
<path
   style="fill:#ffffff;stroke:#ffffff;stroke-width:30;stroke-miterlimit:4;stroke-dasharray:none;stroke-opacity:1"
   d="m 360.72935,332.5575 c 17.80269,-26.68884 35.61031,-53.37359 53.417,-80.06237 1.90774,-2.85647 1.35316,-5.66412 -0.33089,-7.63935 -1.05686,-1.70668 -2.86754,-2.9401 -5.49608,-2.98834 -11.2841,-0.20709 -22.5682,-0.41417 -33.85231,-0.62124 C 372.12156,159.71943 308.02404,94.630396 225.96796,91.538282 142.41754,88.396741 74.852254,159.02492 71.800244,240.14959 c -0.954797,25.32274 38.312416,25.99834 39.259386,0.72046 2.33574,-62.04059 52.10437,-110.01549 114.18889,-110.07336 60.55121,-0.056 107.61137,51.27112 109.96018,109.72806 -10.24827,-0.18808 -20.49655,-0.37614 -30.74582,-0.56423 -5.17113,-0.0949 -9.14333,5.82021 -6.29181,10.45031 16.81148,27.32407 33.62804,54.64422 50.44351,81.96836 2.82507,4.60061 9.13438,4.64138 12.11477,0.17831 z"
   id="path4" />
<g
   id="g6"
   transform="matrix(-0.25881905,-0.96592583,-0.96592583,0.25881905,526.87963,404.28898)">
</g>
<g
   id="g8"
   transform="matrix(-0.25881905,-0.96592583,-0.96592583,0.25881905,526.87963,404.28898)">
</g>
<g
   id="g10"
   transform="matrix(-0.25881905,-0.96592583,-0.96592583,0.25881905,526.87963,404.28898)">
</g>
<g
   id="g12"
   transform="matrix(-0.25881905,-0.96592583,-0.96592583,0.25881905,526.87963,404.28898)">
</g>
<g
   id="g14"
   transform="matrix(-0.25881905,-0.96592583,-0.96592583,0.25881905,526.87963,404.28898)">
</g>
<g
   id="g16"
   transform="matrix(-0.25881905,-0.96592583,-0.96592583,0.25881905,526.87963,404.28898)">
</g>
<g
   id="g18"
   transform="matrix(-0.25881905,-0.96592583,-0.96592583,0.25881905,526.87963,404.28898)">
</g>
<g
   id="g20"
   transform="matrix(-0.25881905,-0.96592583,-0.96592583,0.25881905,526.87963,404.28898)">
</g>
<g
   id="g22"
   transform="matrix(-0.25881905,-0.96592583,-0.96592583,0.25881905,526.87963,404.28898)">
</g>
<g
   id="g24"
   transform="matrix(-0.25881905,-0.96592583,-0.96592583,0.25881905,526.87963,404.28898)">
</g>
<g
   id="g26"
   transform="matrix(-0.25881905,-0.96592583,-0.96592583,0.25881905,526.87963,404.28898)">
</g>
<g
   id="g28"
   transform="matrix(-0.25881905,-0.96592583,-0.96592583,0.25881905,526.87963,404.28898)">
</g>
<g
   id="g30"
   transform="matrix(-0.25881905,-0.96592583,-0.96592583,0.25881905,526.87963,404.28898)">
</g>
<g
   id="g32"
   transform="matrix(-0.25881905,-0.96592583,-0.96592583,0.25881905,526.87963,404.28898)">
</g>
<g
   id="g34"
   transform="matrix(-0.25881905,-0.96592583,-0.96592583,0.25881905,526.87963,404.28898)">
</g>
</svg>
