<?xml version="1.0" encoding="UTF-8" standalone="no"?>
<svg
   viewBox="0 0 50 50"
   width="100px"
   height="100px"
   version="1.1"
   id="svg4"
   xmlns="http://www.w3.org/2000/svg"
   xmlns:svg="http://www.w3.org/2000/svg">
  <defs
     id="defs8" />
  <path
     d="M 36.0625 0 C 35.125 0 34.140625 0.550781 33.40625 1.5 L 25.125 13.125 C 23.933594 12.84375 22.726563 12.71875 21.5 12.71875 C 17.289063 12.71875 13.320313 14.367188 10.34375 17.34375 C 10.15625 17.53125 10.0625 17.765625 10.0625 18.03125 C 10.0625 18.296875 10.15625 18.5625 10.34375 18.75 L 31.25 39.65625 C 31.445313 39.851563 31.679688 39.9375 31.9375 39.9375 C 32.195313 39.9375 32.460938 39.820313 32.65625 39.625 C 36.589844 35.695313 38.152344 30.023438 36.8125 24.65625 L 48.5 16.6875 C 49.375 16.035156 49.933594 15.140625 50 14.25 C 50.050781 13.597656 49.8125 12.972656 49.375 12.53125 L 37.625 0.625 C 37.222656 0.214844 36.660156 0 36.0625 0 Z M 16.53125 27.75 L 0.21875 48.375 C -0.0976563 48.773438 -0.078125 49.359375 0.28125 49.71875 C 0.476563 49.914063 0.742188 50 1 50 C 1.21875 50 1.441406 49.925781 1.625 49.78125 L 22.21875 33.46875 Z"
     id="path2"
     style="fill:#818181;fill-opacity:1" />
</svg>
