<?xml version="1.0" encoding="utf-8"?><!-- Uploaded to: SVG Repo, www.svgrepo.com, Generator: SVG Repo Mixer Tools -->
<svg width="800px" height="800px" viewBox="0 0 16 16" fill="none" xmlns="http://www.w3.org/2000/svg">
<path d="M11 6C12.6569 6 14 4.65685 14 3C14 1.34315 12.6569 0 11 0C9.34315 0 8 1.34315 8 3C8 3.22371 8.02449 3.44169 8.07092 3.65143L4.86861 5.65287C4.35599 5.24423 3.70652 5 3 5C1.34315 5 0 6.34315 0 8C0 9.65685 1.34315 11 3 11C3.70652 11 4.35599 10.7558 4.86861 10.3471L8.07092 12.3486C8.02449 12.5583 8 12.7763 8 13C8 14.6569 9.34315 16 11 16C12.6569 16 14 14.6569 14 13C14 11.3431 12.6569 10 11 10C10.2935 10 9.644 10.2442 9.13139 10.6529L5.92908 8.65143C5.97551 8.44169 6 8.22371 6 8C6 7.77629 5.97551 7.55831 5.92908 7.34857L9.13139 5.34713C9.644 5.75577 10.2935 6 11 6Z" fill="#808080"/>
</svg>