<?xml version="1.0" encoding="UTF-8" standalone="no"?>
<svg
   xmlns:dc="http://purl.org/dc/elements/1.1/"
   xmlns:cc="http://creativecommons.org/ns#"
   xmlns:rdf="http://www.w3.org/1999/02/22-rdf-syntax-ns#"
   xmlns:svg="http://www.w3.org/2000/svg"
   xmlns="http://www.w3.org/2000/svg"
   xmlns:sodipodi="http://sodipodi.sourceforge.net/DTD/sodipodi-0.dtd"
   xmlns:inkscape="http://www.inkscape.org/namespaces/inkscape"
   height="512pt"
   viewBox="0 0 512 512"
   width="512pt"
   version="1.1"
   id="svg4"
   sodipodi:docname="target.svg"
   inkscape:version="1.0.1 (1.0.1+r73)">
  <metadata
     id="metadata10">
    <rdf:RDF>
      <cc:Work
         rdf:about="">
        <dc:format>image/svg+xml</dc:format>
        <dc:type
           rdf:resource="http://purl.org/dc/dcmitype/StillImage" />
      </cc:Work>
    </rdf:RDF>
  </metadata>
  <defs
     id="defs8" />
  <sodipodi:namedview
     pagecolor="#ffffff"
     bordercolor="#666666"
     borderopacity="1"
     objecttolerance="10"
     gridtolerance="10"
     guidetolerance="10"
     inkscape:pageopacity="0"
     inkscape:pageshadow="2"
     inkscape:window-width="1920"
     inkscape:window-height="1015"
     id="namedview6"
     showgrid="false"
     inkscape:zoom="0.874216"
     inkscape:cx="183.97044"
     inkscape:cy="415.14231"
     inkscape:window-x="1920"
     inkscape:window-y="0"
     inkscape:window-maximized="1"
     inkscape:current-layer="layer1"
     inkscape:document-rotation="0" />
  <g
     inkscape:groupmode="layer"
     id="layer1"
     inkscape:label="big-circle">
    <ellipse
       style="fill:#dacabe;fill-opacity:1;stroke-width:0.939918"
       id="path836"
       cx="254.98448"
       cy="255.36992"
       rx="217.01888"
       ry="214.07825" />
  </g>
  <g
     inkscape:groupmode="layer"
     id="layer3"
     inkscape:label="small-circle">
    <ellipse
       style="fill:#e9afaf;fill-opacity:1;stroke-width:0.910654"
       id="path873"
       cx="261.13593"
       cy="253.42949"
       rx="112.84447"
       ry="99.948563" />
  </g>
  <g
     inkscape:groupmode="layer"
     id="layer2"
     inkscape:label="top"
     style="display:inline">
    <path
       d="M 426.41737,86.189243 C 381.05976,40.831623 320.75149,15.851587 256.60662,15.851587 c -64.14852,0 -124.45313,24.980036 -169.810742,70.337656 -45.35762,45.357617 -70.337657,105.662227 -70.337657,169.810747 0,64.14487 24.980037,124.45314 70.337657,169.81075 45.357612,45.35762 105.665882,70.33766 169.810742,70.33766 64.14487,0 124.45314,-24.98004 169.81075,-70.33766 45.35762,-45.35761 70.33766,-105.66588 70.33766,-169.81075 0,-64.14852 -24.98004,-124.45313 -70.33766,-169.810747 z M 466.46898,241.12264 H 378.3298 C 371.55437,185.37651 327.23011,141.05225 271.48398,134.27682 V 46.137636 c 104.17815,7.31409 187.67091,90.806864 194.985,194.985004 z m -224.73971,0 h -76.79795 c 6.35769,-39.31506 37.48289,-70.44026 76.79795,-76.79795 z m 0,29.75471 v 76.79795 c -39.31506,-6.35769 -70.44026,-37.48289 -76.79795,-76.79795 z m 29.75471,0 h 76.79795 c -6.35769,39.31506 -37.48289,70.44026 -76.79795,76.79795 z m 0,-29.75471 v -76.79795 c 39.31506,6.35769 70.44026,37.48289 76.79795,76.79795 z M 241.72927,46.137636 v 88.139184 c -55.74613,6.77543 -100.07039,51.09969 -106.84582,106.84582 H 46.744271 C 54.058361,136.9445 137.55113,53.451726 241.72927,46.137636 Z M 46.744271,270.87735 h 88.139179 c 6.77543,55.74613 51.09969,100.07039 106.84582,106.84216 v 88.14284 C 137.55113,458.54826 54.058361,375.0555 46.744271,270.87735 Z m 224.739709,194.985 v -88.13918 c 55.74613,-6.77543 100.07039,-51.09969 106.84582,-106.84582 h 88.13918 c -7.31409,104.17815 -90.80685,187.67091 -194.985,194.985 z m 0,0"
       fill="#0074f0"
       id="path2"
       style="fill:#414141;fill-opacity:1;stroke-width:0.938077" />
  </g>
</svg>
