<svg id="Capa_1" enable-background="new 0 0 494.851 494.851" height="512" viewBox="0 0 494.851 494.851" width="512" xmlns="http://www.w3.org/2000/svg"><g><circle cx="216" cy="278.833" fill="#fd646f" r="216"/><path d="m432 278.833c0 119.29-96.71 216-216 216-64.73 0-122.82-28.48-162.4-73.6 38.02 33.37 87.85 53.6 142.4 53.6 119.29 0 216-96.71 216-216 0-54.55-20.23-104.38-53.6-142.4 45.12 39.58 73.6 97.67 73.6 162.4z" fill="#fc4755"/><circle cx="216" cy="278.833" fill="#f5f5f5" r="163"/><path d="m379 278.833c0 90.02-72.98 163-163 163-50.1 0-94.92-22.61-124.83-58.17 28.34 23.82 64.91 38.17 104.83 38.17 90.02 0 163-72.98 163-163 0-39.92-14.35-76.49-38.17-104.83 35.56 29.91 58.17 74.73 58.17 124.83z" fill="#e6e6e6"/><circle cx="216" cy="278.833" fill="#fd646f" r="110"/><path d="m326 278.833c0 60.75-49.25 110-110 110-35.47 0-67.03-16.79-87.14-42.86 18.57 14.34 41.86 22.86 67.14 22.86 60.75 0 110-49.25 110-110 0-25.28-8.52-48.57-22.86-67.14 26.07 20.11 42.86 51.67 42.86 87.14z" fill="#fc4755"/><circle cx="216" cy="278.833" fill="#f5f5f5" r="56"/><path d="m420.37 348.923c-4.26 12.42-9.61 24.32-15.95 35.59l-48.22-22.49c6.61-11.1 11.93-23.06 15.76-35.67z" fill="#fc4755"/><path d="m371.96 326.353c-3.83 12.61-9.15 24.57-15.76 35.67l-48.41-22.57c7.14-10.77 12.42-22.86 15.4-35.84z" fill="#e6e6e6"/><path d="m323.19 303.613c-2.98 12.98-8.26 25.07-15.4 35.84l-50.02-23.32c8.66-9.7 14-22.43 14.22-36.4z" fill="#fc4755"/><path d="m271.99 279.733c-.22 13.97-5.56 26.7-14.22 36.4l-46.85-21.85c-9.16-4.26-13.44-14.74-10.17-24.08.22-.61.46-1.22.74-1.83 2.28-4.88 6.31-8.37 11.01-10.08 4.68-1.7 10.03-1.63 14.9.65z" fill="#e6e6e6"/><g><g><path d="m493.178 90.195c1.602.267 2.234 2.232 1.088 3.384l-21.157 21.254-12.98 13.04-35.468 35.622c-2.279 2.289-5.524 3.336-8.712 2.811l-52.901-8.713 39.62-39.3 13.13-13.02 24.15-23.96z" fill="#50758d"/><path d="m473.11 114.833-12.98 13.04-57.46-9.58 13.13-13.02z" fill="#2b597f"/></g><g><path d="m414.63 58.223-24.03 23.51-13.07 12.79-39.48 38.63-8.817-53.578c-.523-3.178.517-6.413 2.793-8.691l35.614-35.651 13.03-13.05 21.558-21.575c1.155-1.156 3.133-.514 3.39 1.099z" fill="#50758d"/><path d="m390.6 81.733-13.07 12.79-9.89-59.29 13.03-13.05z" fill="#2b597f"/></g><path d="m460.34 54.993c0 4.98-1.9 9.98-5.71 13.78l-221.69 221.69c-7.14 7.15-18.45 7.59-26.11 1.32-.5-.41-.99-.85-1.46-1.32-3.81-3.81-5.71-8.79-5.71-13.79 0-4.98 1.9-9.98 5.71-13.78l221.69-221.69c7.61-7.62 19.96-7.62 27.57 0 .47.47.91.96 1.32 1.46 2.93 3.58 4.39 7.95 4.39 12.33z" fill="#918291"/><path d="m460.34 54.993c0 4.98-1.9 9.98-5.71 13.78l-221.69 221.69c-7.14 7.15-18.45 7.59-26.11 1.32l249.12-249.12c2.93 3.58 4.39 7.95 4.39 12.33z" fill="#7a6e79"/></g></g></svg>