<?xml version="1.0" encoding="UTF-8" standalone="no"?>
<svg
   xmlns:dc="http://purl.org/dc/elements/1.1/"
   xmlns:cc="http://creativecommons.org/ns#"
   xmlns:rdf="http://www.w3.org/1999/02/22-rdf-syntax-ns#"
   xmlns:svg="http://www.w3.org/2000/svg"
   xmlns="http://www.w3.org/2000/svg"
   xmlns:sodipodi="http://sodipodi.sourceforge.net/DTD/sodipodi-0.dtd"
   xmlns:inkscape="http://www.inkscape.org/namespaces/inkscape"
   version="1.1"
   id="Capa_1"
   x="0px"
   y="0px"
   viewBox="0 0 490.667 490.667"
   style="enable-background:new 0 0 490.667 490.667;"
   xml:space="preserve"
   sodipodi:docname="upload.svg"
   inkscape:version="1.0.1 (1.0.1+r73)"><metadata
   id="metadata41"><rdf:RDF><cc:Work
       rdf:about=""><dc:format>image/svg+xml</dc:format><dc:type
         rdf:resource="http://purl.org/dc/dcmitype/StillImage" /></cc:Work></rdf:RDF></metadata><defs
   id="defs39" /><sodipodi:namedview
   pagecolor="#ffffff"
   bordercolor="#666666"
   borderopacity="1"
   objecttolerance="10"
   gridtolerance="10"
   guidetolerance="10"
   inkscape:pageopacity="0"
   inkscape:pageshadow="2"
   inkscape:window-width="1920"
   inkscape:window-height="1015"
   id="namedview37"
   showgrid="false"
   inkscape:zoom="1.7201076"
   inkscape:cx="245.91486"
   inkscape:cy="245.3335"
   inkscape:window-x="0"
   inkscape:window-y="0"
   inkscape:window-maximized="1"
   inkscape:current-layer="Capa_1" />
<path
   style="fill:#5970ad;fill-opacity:1"
   d="M245.333,0C109.839,0,0,109.839,0,245.333s109.839,245.333,245.333,245.333  s245.333-109.839,245.333-245.333C490.514,109.903,380.764,0.153,245.333,0z"
   id="path2" />
<path
   style="fill:#FAFAFA;"
   d="M252.885,66.944c-4.234-3.996-10.849-3.996-15.083,0L88.469,216.448  c-4.171,4.16-4.179,10.914-0.019,15.085c2.001,2.006,4.717,3.133,7.55,3.134h74.667v159.829c0,5.891,4.776,10.667,10.667,10.667h128  c5.891,0,10.667-4.776,10.667-10.667V234.667h74.667c5.891,0.011,10.675-4.757,10.686-10.648c0.005-2.84-1.123-5.565-3.134-7.571  L252.885,66.944z"
   id="path4" />
<g
   id="g6">
</g>
<g
   id="g8">
</g>
<g
   id="g10">
</g>
<g
   id="g12">
</g>
<g
   id="g14">
</g>
<g
   id="g16">
</g>
<g
   id="g18">
</g>
<g
   id="g20">
</g>
<g
   id="g22">
</g>
<g
   id="g24">
</g>
<g
   id="g26">
</g>
<g
   id="g28">
</g>
<g
   id="g30">
</g>
<g
   id="g32">
</g>
<g
   id="g34">
</g>
</svg>
