<?xml version="1.0" encoding="UTF-8" standalone="no"?>
<svg
   xmlns:dc="http://purl.org/dc/elements/1.1/"
   xmlns:cc="http://creativecommons.org/ns#"
   xmlns:rdf="http://www.w3.org/1999/02/22-rdf-syntax-ns#"
   xmlns:svg="http://www.w3.org/2000/svg"
   xmlns="http://www.w3.org/2000/svg"
   xmlns:sodipodi="http://sodipodi.sourceforge.net/DTD/sodipodi-0.dtd"
   xmlns:inkscape="http://www.inkscape.org/namespaces/inkscape"
   height="176.39786"
   width="179.94734"
   fill="#000000"
   version="1.1"
   x="0px"
   y="0px"
   viewBox="0 0 59.982447 58.799286"
   enable-background="new 0 0 100 100"
   xml:space="preserve"
   id="svg14"
   sodipodi:docname="watcher-icon.svg"
   inkscape:version="1.0.1 (1.0.1+r73)"
   inkscape:export-filename="/home/csmig/dev/stigman-watcher/icon.png"
   inkscape:export-xdpi="96"
   inkscape:export-ydpi="96"><metadata
     id="metadata20"><rdf:RDF><cc:Work
         rdf:about=""><dc:format>image/svg+xml</dc:format><dc:type
           rdf:resource="http://purl.org/dc/dcmitype/StillImage" /><dc:title></dc:title></cc:Work></rdf:RDF></metadata><defs
     id="defs18" /><sodipodi:namedview
     pagecolor="#ffffff"
     bordercolor="#666666"
     borderopacity="1"
     objecttolerance="10"
     gridtolerance="10"
     guidetolerance="10"
     inkscape:pageopacity="0"
     inkscape:pageshadow="2"
     inkscape:window-width="1920"
     inkscape:window-height="1023"
     id="namedview16"
     showgrid="false"
     inkscape:zoom="0.50204582"
     inkscape:cx="-353.48556"
     inkscape:cy="167.68443"
     inkscape:window-x="0"
     inkscape:window-y="0"
     inkscape:window-maximized="1"
     inkscape:current-layer="svg14"
     inkscape:document-rotation="0"
     fit-margin-top="0"
     fit-margin-left="0"
     fit-margin-right="0"
     fit-margin-bottom="0" /><g
     id="g12"
     transform="matrix(0.71619978,0,0,0.71619978,-5.818407,-6.4107042)"><path
       fill="#000000"
       d="M 35.264,72.368 H 11.209 c -1.702,0 -3.085,1.385 -3.085,3.088 v 12.499 c 0,1.712 1.383,3.086 3.085,3.086 h 24.055 c 1.707,0 3.085,-1.374 3.085,-3.086 V 75.456 c 0.001,-1.703 -1.378,-3.088 -3.085,-3.088 z"
       id="path2" /><path
       fill="#000000"
       d="M 88.787,72.368 H 64.736 c -1.713,0 -3.088,1.397 -3.088,3.088 v 12.499 c 0,1.712 1.375,3.095 3.088,3.095 h 24.051 c 1.697,0 3.088,-1.383 3.088,-3.095 V 75.456 c 0,-1.69 -1.391,-3.088 -3.088,-3.088 z"
       id="path4" /><path
       fill="#000000"
       d="M 64.82,70.565 H 88.697 V 56.898 c 0,-0.231 -0.016,-0.448 -0.066,-0.656 L 82.219,27.043 C 82.045,26.248 81.543,25.6 80.901,25.166 80.34,24.569 79.563,24.194 78.678,24.194 H 56.486 c -1.697,0 -3.082,1.383 -3.082,3.094 v 1.084 h -6.802 v -1.084 c 0,-1.711 -1.387,-3.094 -3.093,-3.094 H 21.323 c -0.876,0 -1.665,0.375 -2.237,0.981 -0.64,0.425 -1.14,1.073 -1.309,1.868 l -6.405,29.189 c -0.046,0.218 -0.074,0.435 -0.074,0.656 V 70.565 H 35.181 V 63.37 h 8.329 c 1.707,0 3.093,-1.394 3.093,-3.096 v -1.626 h 6.802 v 1.636 c 0,1.701 1.385,3.086 3.082,3.086 h 8.334 v 7.195 z"
       id="path6" /><path
       fill="#000000"
       d="m 76.668,12.035 c 0,-1.699 -1.385,-3.084 -3.096,-3.084 H 60.479 c -1.688,0 -3.088,1.385 -3.088,3.084 V 22.65 h 19.277 z"
       id="path8" /><path
       fill="#000000"
       d="m 42.598,12.035 c 0,-1.699 -1.376,-3.084 -3.08,-3.084 H 26.431 c -1.707,0 -3.085,1.385 -3.085,3.084 V 22.65 h 19.252 z"
       id="path10" /></g><g
     id="g857"
     transform="matrix(0.17796757,0,0,0.17796757,18.372001,13.358997)"><rect
       style="fill:#ffffff;fill-opacity:1"
       id="rect832"
       width="82.19175"
       height="81.380943"
       x="26.236219"
       y="24.137899"
       ry="40.690472" /><g
       id="svg_2"
       style="fill:#008000"
       transform="matrix(5.9735944,0,0,5.7199542,-6.8409386,-4.6272509)"><path
         fill="none"
         d="M 0,0 H 24 V 24 H 0 Z"
         id="path847" /><path
         d="M 12,1 3,5 v 6 c 0,5.55 3.84,10.74 9,12 5.16,-1.26 9,-6.45 9,-12 V 5 Z M 10,17 6,13 7.41,11.59 10,14.17 16.59,7.58 18,9 Z"
         id="path849"
         style="fill:#44ab5e;fill-opacity:1" /></g></g></svg>
