<?xml version="1.0" encoding="UTF-8" standalone="no"?>
<svg
   xmlns:dc="http://purl.org/dc/elements/1.1/"
   xmlns:cc="http://creativecommons.org/ns#"
   xmlns:rdf="http://www.w3.org/1999/02/22-rdf-syntax-ns#"
   xmlns:svg="http://www.w3.org/2000/svg"
   xmlns="http://www.w3.org/2000/svg"
   xmlns:sodipodi="http://sodipodi.sourceforge.net/DTD/sodipodi-0.dtd"
   xmlns:inkscape="http://www.inkscape.org/namespaces/inkscape"
   height="191.3625"
   width="191.3889"
   fill="#000000"
   version="1.1"
   x="0px"
   y="0px"
   viewBox="0 0 20.414816 20.412"
   enable-background="new 0 0 32 32"
   xml:space="preserve"
   id="svg6"
   sodipodi:docname="wrench.svg"
   inkscape:version="1.0.1 (1.0.1+r73)"><metadata
     id="metadata12"><rdf:RDF><cc:Work
         rdf:about=""><dc:format>image/svg+xml</dc:format><dc:type
           rdf:resource="http://purl.org/dc/dcmitype/StillImage" /><dc:title></dc:title></cc:Work></rdf:RDF></metadata><defs
     id="defs10" /><sodipodi:namedview
     pagecolor="#ffffff"
     bordercolor="#666666"
     borderopacity="1"
     objecttolerance="10"
     gridtolerance="10"
     guidetolerance="10"
     inkscape:pageopacity="0"
     inkscape:pageshadow="2"
     inkscape:window-width="1920"
     inkscape:window-height="1023"
     id="namedview8"
     showgrid="false"
     inkscape:zoom="2.84"
     inkscape:cx="112.82226"
     inkscape:cy="112.43437"
     inkscape:window-x="0"
     inkscape:window-y="0"
     inkscape:window-maximized="1"
     inkscape:current-layer="svg6"
     inkscape:document-rotation="0"
     fit-margin-top="0"
     fit-margin-left="0"
     fit-margin-right="0"
     fit-margin-bottom="0" /><path
     d="m 19.341816,14.145 -4.309,-4.308 c 0.764,-2.608 0.121,-5.546 -1.933,-7.6 C 11.655816,0.794 9.7358157,0 7.6918157,0 c -1.075,0 -2.117,0.218 -3.1,0.648 l -1.34,0.588 4.717,4.718 -2.186,2.186 -4.696,-4.696 -0.55700003,1.424 c -1.113,2.844 -0.44,6.072 1.71400003,8.226 1.45,1.45 3.377,2.248 5.428,2.248 0.746,0 1.476,-0.108 2.172,-0.312 l 4.3070003,4.306 c 0.693081,0.69292 1.616,1.076 2.597,1.076 0.98,0 1.902,-0.383 2.595,-1.076 1.429,-1.431 1.43,-3.759 -10e-4,-5.191 z"
     id="path2"
     style="fill:#808080;fill-opacity:1"
     sodipodi:nodetypes="cccsccccccsscsscc" /></svg>
