<?xml version="1.0" encoding="UTF-8" standalone="no"?>
<svg
   xmlns:dc="http://purl.org/dc/elements/1.1/"
   xmlns:cc="http://creativecommons.org/ns#"
   xmlns:rdf="http://www.w3.org/1999/02/22-rdf-syntax-ns#"
   xmlns:svg="http://www.w3.org/2000/svg"
   xmlns="http://www.w3.org/2000/svg"
   xmlns:sodipodi="http://sodipodi.sourceforge.net/DTD/sodipodi-0.dtd"
   xmlns:inkscape="http://www.inkscape.org/namespaces/inkscape"
   height="300px"
   width="300px"
   fill="#000000"
   version="1.1"
   x="0px"
   y="0px"
   viewBox="0 0 100 100"
   style="enable-background:new 0 0 100 100;"
   xml:space="preserve"
   id="svg6"
   sodipodi:docname="bot2.svg"
   inkscape:version="1.0.2 (1.0.2+r75+1)"><metadata
     id="metadata12"><rdf:RDF><cc:Work
         rdf:about=""><dc:format>image/svg+xml</dc:format><dc:type
           rdf:resource="http://purl.org/dc/dcmitype/StillImage" /><dc:title></dc:title></cc:Work></rdf:RDF></metadata><defs
     id="defs10" /><sodipodi:namedview
     pagecolor="#ffffff"
     bordercolor="#666666"
     borderopacity="1"
     objecttolerance="10"
     gridtolerance="10"
     guidetolerance="10"
     inkscape:pageopacity="0"
     inkscape:pageshadow="2"
     inkscape:window-width="1920"
     inkscape:window-height="1023"
     id="namedview8"
     showgrid="false"
     inkscape:zoom="2.84"
     inkscape:cx="150.35211"
     inkscape:cy="164.08451"
     inkscape:window-x="0"
     inkscape:window-y="0"
     inkscape:window-maximized="1"
     inkscape:current-layer="svg6"
     inkscape:document-rotation="0" /><style
     type="text/css"
     id="style2">
	.st0{fill-rule:evenodd;clip-rule:evenodd;}
</style><path
     class="st0"
     d="M 97.5,59.8 V 40.2 H 80.3 C 79.7,38.6 79.1,37 78.3,35.6 L 90.6,23.3 76.7,9.5 64.1,22 C 62.7,21.3 61.2,20.7 59.7,20.2 V 2.5 H 40.2 v 17.7 c -1.5,0.5 -3,1.1 -4.4,1.8 L 23.3,9.5 9.5,23.3 21.8,35.6 c -0.8,1.5 -1.5,3 -2,4.6 H 2.5 v 19.5 h 16.7 c 0.5,1.8 1.2,3.5 2,5.2 L 9.5,76.7 23.3,90.5 34.8,79 c 1.7,0.9 3.5,1.7 5.4,2.3 V 97.5 H 59.7 V 81.3 c 1.9,-0.6 3.7,-1.4 5.4,-2.3 L 76.6,90.5 90.4,76.7 78.8,64.9 c 0.8,-1.6 1.5,-3.4 2,-5.2 H 97.5 Z M 50,68.366667 C 39.6,68.366667 32.433333,61.2 32.433333,50.8 32.433333,40.4 39.6,33.233333 50,33.233333 60.5,33.233333 67.566667,40.4 67.566667,50.8 67.566667,61.2 60.5,68.366667 50,68.366667"
     id="path4"
     style="fill:#808080;fill-opacity:1"
     sodipodi:nodetypes="cccccccccccccccccccccccccccccccccccsssc" /></svg>
