<?xml version="1.0" encoding="UTF-8" standalone="no"?>
<svg
   xmlns:dc="http://purl.org/dc/elements/1.1/"
   xmlns:cc="http://creativecommons.org/ns#"
   xmlns:rdf="http://www.w3.org/1999/02/22-rdf-syntax-ns#"
   xmlns:svg="http://www.w3.org/2000/svg"
   xmlns="http://www.w3.org/2000/svg"
   xmlns:sodipodi="http://sodipodi.sourceforge.net/DTD/sodipodi-0.dtd"
   xmlns:inkscape="http://www.inkscape.org/namespaces/inkscape"
   version="1.1"
   x="0px"
   y="0px"
   viewBox="0 0 1000 1000"
   enable-background="new 0 0 1000 1000"
   xml:space="preserve"
   id="svg8"
   sodipodi:docname="collapse-left.svg"
   inkscape:version="1.0.2 (1.0.2+r75+1)"><defs
   id="defs12" /><sodipodi:namedview
   pagecolor="#ffffff"
   bordercolor="#666666"
   borderopacity="1"
   objecttolerance="10"
   gridtolerance="10"
   guidetolerance="10"
   inkscape:pageopacity="0"
   inkscape:pageshadow="2"
   inkscape:window-width="1920"
   inkscape:window-height="1023"
   id="namedview10"
   showgrid="false"
   inkscape:zoom="0.852"
   inkscape:cx="501.17371"
   inkscape:cy="500"
   inkscape:window-x="0"
   inkscape:window-y="0"
   inkscape:window-maximized="1"
   inkscape:current-layer="svg8" />
<metadata
   id="metadata2"> Svg Vector Icons : http://www.onlinewebfonts.com/icon <rdf:RDF><cc:Work
     rdf:about=""><dc:format>image/svg+xml</dc:format><dc:type
       rdf:resource="http://purl.org/dc/dcmitype/StillImage" /><dc:title></dc:title></cc:Work></rdf:RDF></metadata>
<g
   id="g6"
   transform="rotate(-90,500,500)"
   style="fill:#808080;fill-opacity:1"><path
     d="m 990,919.7 c 0,39.4 -31.9,71.4 -71.3,71.4 C 898.9,991.1 881,983 868,970 l -0.1,0.1 -368.5,-368.7 -360.9,361 c -13,17.4 -33.8,28.7 -57.2,28.7 -39.4,0 -71.3,-32 -71.3,-71.4 0,-19.5 7.8,-37.2 20.5,-50.1 l -0.5,-0.5 368.5,-368.7 -0.1,-0.1 39.7,-39.7 c 18.4,-18.4 36.5,-30.3 60.6,-30.3 24.1,0 45.1,13.4 62,30.3 l 39.7,39.7 -0.1,0.1 365.9,366 c 14.6,13.1 23.8,32.1 23.8,53.3 z M 81.3,569.6 c 23.4,0 44.1,-11.3 57.2,-28.7 l 360.9,-361 368.5,368.7 0.1,-0.1 c 12.9,13 30.8,21.1 50.7,21.1 39.4,0 71.3,-32 71.3,-71.4 C 990,477 980.8,458 966.1,445 L 600.3,79 600.4,78.9 560.7,39.2 C 543.8,22.3 522.8,8.9 498.7,8.9 474.6,8.9 456.5,20.8 438.1,39.2 L 398.4,78.9 398.5,79 30,447.7 l 0.5,0.5 C 17.8,461.1 10,478.7 10,498.3 c 0,39.4 31.9,71.3 71.3,71.3 z"
     id="path4"
     style="fill:#808080;fill-opacity:1" /></g>
</svg>
