<?xml version="1.0" encoding="UTF-8" standalone="no"?>
<svg
   xmlns:dc="http://purl.org/dc/elements/1.1/"
   xmlns:cc="http://creativecommons.org/ns#"
   xmlns:rdf="http://www.w3.org/1999/02/22-rdf-syntax-ns#"
   xmlns:svg="http://www.w3.org/2000/svg"
   xmlns="http://www.w3.org/2000/svg"
   version="1.1"
   id="Capa_1"
   x="0px"
   y="0px"
   width="34.96px"
   height="34.96px"
   viewBox="0 0 34.96 34.96"
   style="enable-background:new 0 0 34.96 34.96;"
   xml:space="preserve"><metadata
   id="metadata931"><rdf:RDF><cc:Work
       rdf:about=""><dc:format>image/svg+xml</dc:format><dc:type
         rdf:resource="http://purl.org/dc/dcmitype/StillImage" /><dc:title></dc:title></cc:Work></rdf:RDF></metadata><defs
   id="defs929" />
<g
   id="g894"
   style="fill:#808080;fill-opacity:1">
	<path
   d="M34.227,18.89L16.07,0.733c-0.577-0.578-1.4-0.836-2.206-0.694L3.846,1.823C2.814,2.007,2.006,2.815,1.822,3.847   L0.039,13.865c-0.143,0.805,0.116,1.628,0.694,2.206l18.156,18.156c0.488,0.487,1.128,0.731,1.768,0.731   c0.642,0,1.28-0.244,1.77-0.731l11.803-11.804C35.204,21.448,35.204,19.865,34.227,18.89z M9.426,9.455   c-1,0.985-2.609,0.973-3.594-0.026c-0.985-1-0.974-2.609,0.026-3.595c1-0.985,2.609-0.973,3.595,0.027   C10.438,6.859,10.425,8.468,9.426,9.455z"
   id="path892"
   style="fill:#808080;fill-opacity:1" />
</g>
<g
   id="g896">
</g>
<g
   id="g898">
</g>
<g
   id="g900">
</g>
<g
   id="g902">
</g>
<g
   id="g904">
</g>
<g
   id="g906">
</g>
<g
   id="g908">
</g>
<g
   id="g910">
</g>
<g
   id="g912">
</g>
<g
   id="g914">
</g>
<g
   id="g916">
</g>
<g
   id="g918">
</g>
<g
   id="g920">
</g>
<g
   id="g922">
</g>
<g
   id="g924">
</g>
</svg>
