<?xml version="1.0" encoding="UTF-8" standalone="no"?>
<!-- Uploaded to: SVG Repo, www.svgrepo.com, Generator: SVG Repo Mixer Tools -->

<svg
   fill="#000000"
   height="512"
   width="512"
   version="1.1"
   id="Layer_1"
   viewBox="0 0 211.2 211.2"
   xml:space="preserve"
   sodipodi:docname="lock.svg"
   inkscape:version="1.3.2 (091e20ef0f, 2023-11-25, custom)"
   xmlns:inkscape="http://www.inkscape.org/namespaces/inkscape"
   xmlns:sodipodi="http://sodipodi.sourceforge.net/DTD/sodipodi-0.dtd"
   xmlns="http://www.w3.org/2000/svg"
   xmlns:svg="http://www.w3.org/2000/svg"><defs
   id="defs1" /><sodipodi:namedview
   id="namedview1"
   pagecolor="#ffffff"
   bordercolor="#000000"
   borderopacity="0.25"
   inkscape:showpageshadow="2"
   inkscape:pageopacity="0.0"
   inkscape:pagecheckerboard="0"
   inkscape:deskcolor="#d1d1d1"
   inkscape:zoom="1.44125"
   inkscape:cx="400"
   inkscape:cy="288.98526"
   inkscape:window-width="3431"
   inkscape:window-height="1363"
   inkscape:window-x="0"
   inkscape:window-y="0"
   inkscape:window-maximized="1"
   inkscape:current-layer="Layer_1" />
<g
   id="XMLID_504_"
   style="fill:#7f7f7f;fill-opacity:1"
   transform="matrix(0.74966323,0,0,0.63614122,-16.256953,0)">
	<path
   id="XMLID_505_"
   d="m 65,330 h 200 c 8.284,0 15,-6.716 15,-15 V 145 c 0,-8.284 -6.716,-15 -15,-15 H 250 V 85 C 250,38.131 211.869,0 165,0 118.131,0 80,38.131 80,85 v 45 H 65 c -8.284,0 -15,6.716 -15,15 v 170 c 0,8.284 6.716,15 15,15 z m 142.481,-110.644 -42.5,42.5 c -2.929,2.929 -6.768,4.394 -10.606,4.394 -3.838,0 -7.678,-1.465 -10.606,-4.394 l -21.25,-21.25 c -5.858,-5.858 -5.858,-15.354 0,-21.213 5.857,-5.858 15.355,-5.858 21.213,0 l 10.644,10.643 31.894,-31.893 c 5.857,-5.858 15.355,-5.858 21.213,0 5.857,5.859 5.857,15.355 -0.002,21.213 z M 110,85 c 0,-30.327 24.673,-55 55,-55 30.327,0 55,24.673 55,55 v 45 H 110 Z"
   style="fill:#7f7f7f;fill-opacity:1" />
</g>
</svg>
