<?xml version="1.0" encoding="UTF-8" standalone="no"?>
<svg
   version="1.1"
   id="Layer_1"
   x="0px"
   y="0px"
   viewBox="0 0 473.654 473.654"
   style="enable-background:new 0 0 473.654 473.654;"
   xml:space="preserve"
   sodipodi:docname="override2.svg"
   inkscape:version="1.2.2 (b0a8486541, 2022-12-01)"
   xmlns:inkscape="http://www.inkscape.org/namespaces/inkscape"
   xmlns:sodipodi="http://sodipodi.sourceforge.net/DTD/sodipodi-0.dtd"
   xmlns="http://www.w3.org/2000/svg"
   xmlns:svg="http://www.w3.org/2000/svg"
   xmlns:rdf="http://www.w3.org/1999/02/22-rdf-syntax-ns#"
   xmlns:cc="http://creativecommons.org/ns#"
   xmlns:dc="http://purl.org/dc/elements/1.1/"><metadata
   id="metadata41"><rdf:RDF><cc:Work
       rdf:about=""><dc:format>image/svg+xml</dc:format><dc:type
         rdf:resource="http://purl.org/dc/dcmitype/StillImage" /></cc:Work></rdf:RDF></metadata><defs
   id="defs39"><inkscape:path-effect
     effect="offset"
     id="path-effect16582"
     is_visible="true"
     lpeversion="1.2"
     linejoin_type="miter"
     unit="mm"
     offset="4"
     miter_limit="4"
     attempt_force_join="false"
     update_on_knot_move="true" /></defs><sodipodi:namedview
   pagecolor="#ffffff"
   bordercolor="#666666"
   borderopacity="1"
   objecttolerance="10"
   gridtolerance="10"
   guidetolerance="10"
   inkscape:pageopacity="0"
   inkscape:pageshadow="2"
   inkscape:window-width="1920"
   inkscape:window-height="1026"
   id="namedview37"
   showgrid="false"
   inkscape:zoom="1.2719305"
   inkscape:cx="185.93783"
   inkscape:cy="261.02055"
   inkscape:window-x="0"
   inkscape:window-y="0"
   inkscape:window-maximized="1"
   inkscape:current-layer="Layer_1"
   inkscape:showpageshadow="2"
   inkscape:pagecheckerboard="0"
   inkscape:deskcolor="#d1d1d1" />
<path
   id="circle2"
   style="fill:#c97324;fill-opacity:1"
   d="m 142.02424,-177.79031 c -44.983455,51.91397 -110.29109,81.738976 -178.982948,81.7388 -130.796172,-1.81e-4 -236.827182,-106.03175 -236.826672,-236.82792 1.8e-4,-130.79617 106.03175,-236.82718 236.827924,-236.82667 130.796169,1.8e-4 236.827176,106.03175 236.826666,236.82792 -1.7e-4,56.97075 -20.5371,112.03222 -57.84497,155.08787 z m -65.469415,-40.08027 c 1.8149,-2.19173 3.581787,-4.44682 5.297668,-6.76474 50.790877,-68.62341 56.686867,-178.35489 -2.164873,-237.30804 4.093873,-5.31338 8.187757,-10.62679 12.281423,-15.93998 4.642243,-6.02519 5.649037,-13.42705 3.517118,-19.93595 -2.245858,-8.37332 -8.731455,-14.67046 -18.853314,-15.54302 -31.957671,-2.76981 -86.3688813,-2.77219 -120.553649,0.12404 -16.443479,-1.41841 -28.594464,14.08546 -22.961275,29.74702 5.764855,37.91285 12.590623,94.12514 23.421059,124.31873 5.946803,16.60167 27.908146,19.21932 38.2953357,5.73774 2.710551,-3.51804 5.42100104,-7.03541 8.131382,-10.55325 28.5606843,34.31197 52.9127093,60.66911 23.8369873,96.93865 -33.6622686,41.99027 -103.23536,62.2062 -146.492327,30.18773 -36.4359,-26.98005 -68.41073,15.93583 -31.95854,42.91428 69.382153,51.35906 171.941148,44.02039 228.203005,-23.92321 z"
   transform="matrix(0.62476097,-0.78081606,-0.78081606,-0.62476097,0,0)"
   sodipodi:nodetypes="ccccscsccscccccsccccs" />

<g
   id="g6"
   transform="matrix(-0.25881905,-0.96592583,-0.96592583,0.25881905,526.87963,404.28898)">
</g>
<g
   id="g8"
   transform="matrix(-0.25881905,-0.96592583,-0.96592583,0.25881905,526.87963,404.28898)">
</g>
<g
   id="g10"
   transform="matrix(-0.25881905,-0.96592583,-0.96592583,0.25881905,526.87963,404.28898)">
</g>
<g
   id="g12"
   transform="matrix(-0.25881905,-0.96592583,-0.96592583,0.25881905,526.87963,404.28898)">
</g>
<g
   id="g14"
   transform="matrix(-0.25881905,-0.96592583,-0.96592583,0.25881905,526.87963,404.28898)">
</g>
<g
   id="g16"
   transform="matrix(-0.25881905,-0.96592583,-0.96592583,0.25881905,526.87963,404.28898)">
</g>
<g
   id="g18"
   transform="matrix(-0.25881905,-0.96592583,-0.96592583,0.25881905,526.87963,404.28898)">
</g>
<g
   id="g20"
   transform="matrix(-0.25881905,-0.96592583,-0.96592583,0.25881905,526.87963,404.28898)">
</g>
<g
   id="g22"
   transform="matrix(-0.25881905,-0.96592583,-0.96592583,0.25881905,526.87963,404.28898)">
</g>
<g
   id="g24"
   transform="matrix(-0.25881905,-0.96592583,-0.96592583,0.25881905,526.87963,404.28898)">
</g>
<g
   id="g26"
   transform="matrix(-0.25881905,-0.96592583,-0.96592583,0.25881905,526.87963,404.28898)">
</g>
<g
   id="g28"
   transform="matrix(-0.25881905,-0.96592583,-0.96592583,0.25881905,526.87963,404.28898)">
</g>
<g
   id="g30"
   transform="matrix(-0.25881905,-0.96592583,-0.96592583,0.25881905,526.87963,404.28898)">
</g>
<g
   id="g32"
   transform="matrix(-0.25881905,-0.96592583,-0.96592583,0.25881905,526.87963,404.28898)">
</g>
<g
   id="g34"
   transform="matrix(-0.25881905,-0.96592583,-0.96592583,0.25881905,526.87963,404.28898)">
</g>
</svg>
