<?xml version="1.0" encoding="UTF-8" standalone="no"?>
<svg
   xmlns:dc="http://purl.org/dc/elements/1.1/"
   xmlns:cc="http://creativecommons.org/ns#"
   xmlns:rdf="http://www.w3.org/1999/02/22-rdf-syntax-ns#"
   xmlns:svg="http://www.w3.org/2000/svg"
   xmlns="http://www.w3.org/2000/svg"
   xmlns:sodipodi="http://sodipodi.sourceforge.net/DTD/sodipodi-0.dtd"
   xmlns:inkscape="http://www.inkscape.org/namespaces/inkscape"
   version="1.1"
   id="Capa_1"
   x="0px"
   y="0px"
   width="431.972px"
   height="431.972px"
   viewBox="0 0 431.972 431.972"
   style="enable-background:new 0 0 431.972 431.972;"
   xml:space="preserve"
   sodipodi:docname="save-icon-60.svg"
   inkscape:version="1.0.2 (1.0.2+r75+1)"><metadata
   id="metadata41"><rdf:RDF><cc:Work
       rdf:about=""><dc:format>image/svg+xml</dc:format><dc:type
         rdf:resource="http://purl.org/dc/dcmitype/StillImage" /><dc:title></dc:title></cc:Work></rdf:RDF></metadata><defs
   id="defs39" /><sodipodi:namedview
   pagecolor="#ffffff"
   bordercolor="#666666"
   borderopacity="1"
   objecttolerance="10"
   gridtolerance="10"
   guidetolerance="10"
   inkscape:pageopacity="0"
   inkscape:pageshadow="2"
   inkscape:window-width="1920"
   inkscape:window-height="1023"
   id="namedview37"
   showgrid="false"
   inkscape:zoom="1.9723501"
   inkscape:cx="216.493"
   inkscape:cy="215.98599"
   inkscape:window-x="0"
   inkscape:window-y="0"
   inkscape:window-maximized="1"
   inkscape:current-layer="Capa_1" />
<g
   id="g4"
   style="fill:#999999;fill-opacity:1">
	<path
   d="M393.146,14.279c-3.713-5.333-8.713-9.233-14.989-11.707c-3.997-1.711-8.186-2.568-12.565-2.568V0H66.378   c-4.377,0-8.562,0.857-12.56,2.568c-6.28,2.472-11.278,6.377-14.989,11.707c-3.71,5.33-5.568,11.228-5.568,17.701v368.019   c0,6.475,1.858,12.371,5.568,17.706c3.711,5.329,8.709,9.233,14.989,11.704c3.994,1.711,8.183,2.566,12.56,2.566   c8.949,0,16.844-3.142,23.698-9.418l125.91-121.062l125.91,121.065c6.663,6.081,14.562,9.127,23.695,9.127   c4.76,0,8.948-0.756,12.565-2.279c6.276-2.471,11.276-6.375,14.989-11.711c3.71-5.328,5.564-11.225,5.564-17.699V31.98   C398.71,25.507,396.852,19.609,393.146,14.279z"
   id="path2"
   style="fill:#999999;fill-opacity:1" />
</g>
<g
   id="g6">
</g>
<g
   id="g8">
</g>
<g
   id="g10">
</g>
<g
   id="g12">
</g>
<g
   id="g14">
</g>
<g
   id="g16">
</g>
<g
   id="g18">
</g>
<g
   id="g20">
</g>
<g
   id="g22">
</g>
<g
   id="g24">
</g>
<g
   id="g26">
</g>
<g
   id="g28">
</g>
<g
   id="g30">
</g>
<g
   id="g32">
</g>
<g
   id="g34">
</g>
</svg>
