<?xml version="1.0" encoding="UTF-8" standalone="no"?>
<svg
   xmlns:dc="http://purl.org/dc/elements/1.1/"
   xmlns:cc="http://creativecommons.org/ns#"
   xmlns:rdf="http://www.w3.org/1999/02/22-rdf-syntax-ns#"
   xmlns:svg="http://www.w3.org/2000/svg"
   xmlns="http://www.w3.org/2000/svg"
   xmlns:sodipodi="http://sodipodi.sourceforge.net/DTD/sodipodi-0.dtd"
   xmlns:inkscape="http://www.inkscape.org/namespaces/inkscape"
   height="300px"
   width="300px"
   fill="#000000"
   version="1.1"
   x="0px"
   y="0px"
   viewBox="0 0 100 100"
   style="enable-background:new 0 0 100 100;"
   xml:space="preserve"
   id="svg6"
   sodipodi:docname="bot3.svg"
   inkscape:version="1.0.1 (1.0.1+r73)"><metadata
     id="metadata12"><rdf:RDF><cc:Work
         rdf:about=""><dc:format>image/svg+xml</dc:format><dc:type
           rdf:resource="http://purl.org/dc/dcmitype/StillImage" /><dc:title></dc:title></cc:Work></rdf:RDF></metadata><defs
     id="defs10" /><sodipodi:namedview
     pagecolor="#ffffff"
     bordercolor="#666666"
     borderopacity="1"
     objecttolerance="10"
     gridtolerance="10"
     guidetolerance="10"
     inkscape:pageopacity="0"
     inkscape:pageshadow="2"
     inkscape:window-width="1920"
     inkscape:window-height="1023"
     id="namedview8"
     showgrid="false"
     inkscape:zoom="2.84"
     inkscape:cx="150.35211"
     inkscape:cy="150"
     inkscape:window-x="0"
     inkscape:window-y="0"
     inkscape:window-maximized="1"
     inkscape:current-layer="svg6" /><style
     type="text/css"
     id="style2">
	.st0{fill-rule:evenodd;clip-rule:evenodd;}
</style><path
     class="st0"
     d="M97.5,59.8V40.2H80.3c-0.6-1.6-1.2-3.2-2-4.6l12.3-12.3L76.7,9.5L64.1,22c-1.4-0.7-2.9-1.3-4.4-1.8V2.5H40.2  v17.7c-1.5,0.5-3,1.1-4.4,1.8L23.3,9.5L9.5,23.3l12.3,12.3c-0.8,1.5-1.5,3-2,4.6H2.5v19.5h16.7c0.5,1.8,1.2,3.5,2,5.2L9.5,76.7  l13.8,13.8L34.8,79c1.7,0.9,3.5,1.7,5.4,2.3v16.2h19.5V81.3c1.9-0.6,3.7-1.4,5.4-2.3l11.5,11.5l13.8-13.8L78.8,64.9  c0.8-1.6,1.5-3.4,2-5.2H97.5z M50,69.7c-10.4,0-18.9-8.5-18.9-18.9c0-10.4,8.5-18.9,18.9-18.9c10.5,0,18.9,8.5,18.9,18.9  C68.9,61.2,60.5,69.7,50,69.7 M43,38l20.1,12.8L43,63.6V38z"
     id="path4"
     style="fill:#808080;fill-opacity:1" /></svg>
