<?xml version="1.0" encoding="UTF-8" standalone="no"?>
<svg
   xmlns:dc="http://purl.org/dc/elements/1.1/"
   xmlns:cc="http://creativecommons.org/ns#"
   xmlns:rdf="http://www.w3.org/1999/02/22-rdf-syntax-ns#"
   xmlns:svg="http://www.w3.org/2000/svg"
   xmlns="http://www.w3.org/2000/svg"
   xmlns:sodipodi="http://sodipodi.sourceforge.net/DTD/sodipodi-0.dtd"
   xmlns:inkscape="http://www.inkscape.org/namespaces/inkscape"
   height="300px"
   width="300px"
   fill="#000000"
   version="1.1"
   x="0px"
   y="0px"
   viewBox="0 0 28.001 30"
   style="enable-background:new 0 0 28.001 30;"
   xml:space="preserve"
   id="svg12"
   sodipodi:docname="database.svg"
   inkscape:version="1.0.1 (3bc2e813f5, 2020-09-07)"><metadata
     id="metadata18"><rdf:RDF><cc:Work
         rdf:about=""><dc:format>image/svg+xml</dc:format><dc:type
           rdf:resource="http://purl.org/dc/dcmitype/StillImage" /></cc:Work></rdf:RDF></metadata><defs
     id="defs16" /><sodipodi:namedview
     pagecolor="#ffffff"
     bordercolor="#666666"
     borderopacity="1"
     objecttolerance="10"
     gridtolerance="10"
     guidetolerance="10"
     inkscape:pageopacity="0"
     inkscape:pageshadow="2"
     inkscape:window-width="1920"
     inkscape:window-height="1029"
     id="namedview14"
     showgrid="false"
     inkscape:zoom="1.4066667"
     inkscape:cx="197.96455"
     inkscape:cy="231.91274"
     inkscape:window-x="1920"
     inkscape:window-y="0"
     inkscape:window-maximized="1"
     inkscape:current-layer="svg12"
     inkscape:document-rotation="0" /><g
     id="g10"
     style="fill:#808080;fill-opacity:1"><path
       d="M0.001,18.5c0,2.481,6.28,4.5,14,4.5c7.713,0,13.988-2.016,13.999-4.494v-0.011c-0.001-0.168,0-3.583,0-3.583   C25.123,17.021,19.549,18,14.001,18C8.452,18,2.876,17.021,0,14.91C0,14.91,0.001,18.331,0.001,18.5z"
       id="path2"
       style="fill:#808080;fill-opacity:1" /><path
       d="M28,21.912C25.123,24.021,19.549,25,14.001,25C8.452,25,2.876,24.021,0,21.91V26l0,0c0.775,2.25,6.795,4,14.001,4   s13.225-1.75,14-4l0,0L28,21.912z"
       id="path4"
       style="fill:#808080;fill-opacity:1" /><path
       d="M0.001,11.5c0,2.481,6.28,4.5,14,4.5c7.713,0,13.988-2.016,13.999-4.494v-0.011c-0.001-0.168,0-3.583,0-3.583   C25.123,10.021,19.549,11,14.001,11C8.452,11,2.876,10.021,0,7.91C0,7.91,0.001,11.331,0.001,11.5z"
       id="path6"
       style="fill:#808080;fill-opacity:1" /><ellipse
       cx="14.001"
       cy="4.5"
       rx="14"
       ry="4.5"
       id="ellipse8"
       style="fill:#808080;fill-opacity:1" /></g></svg>
