<?xml version="1.0" encoding="UTF-8" standalone="no"?>
<svg
   xmlns:dc="http://purl.org/dc/elements/1.1/"
   xmlns:cc="http://creativecommons.org/ns#"
   xmlns:rdf="http://www.w3.org/1999/02/22-rdf-syntax-ns#"
   xmlns:svg="http://www.w3.org/2000/svg"
   xmlns="http://www.w3.org/2000/svg"
   xmlns:sodipodi="http://sodipodi.sourceforge.net/DTD/sodipodi-0.dtd"
   xmlns:inkscape="http://www.inkscape.org/namespaces/inkscape"
   version="1.1"
   id="Capa_1"
   x="0px"
   y="0px"
   viewBox="0 0 512 512"
   style="enable-background:new 0 0 512 512;"
   xml:space="preserve"
   sodipodi:docname="grid.svg"
   inkscape:version="1.0.1 (1.0.1+r73)"><metadata
   id="metadata44"><rdf:RDF><cc:Work
       rdf:about=""><dc:format>image/svg+xml</dc:format><dc:type
         rdf:resource="http://purl.org/dc/dcmitype/StillImage" /></cc:Work></rdf:RDF></metadata><defs
   id="defs42" /><sodipodi:namedview
   pagecolor="#ffffff"
   bordercolor="#666666"
   borderopacity="1"
   objecttolerance="10"
   gridtolerance="10"
   guidetolerance="10"
   inkscape:pageopacity="0"
   inkscape:pageshadow="2"
   inkscape:window-width="1920"
   inkscape:window-height="1015"
   id="namedview40"
   showgrid="false"
   inkscape:zoom="1.6484375"
   inkscape:cx="256.60664"
   inkscape:cy="256"
   inkscape:window-x="0"
   inkscape:window-y="0"
   inkscape:window-maximized="1"
   inkscape:current-layer="Capa_1"
   inkscape:document-rotation="0" />
<linearGradient
   id="SVGID_1_"
   gradientUnits="userSpaceOnUse"
   x1="256"
   y1="464"
   x2="256"
   y2="52"
   gradientTransform="matrix(1 0 0 -1 0 514)">
	<stop
   offset="0"
   style="stop-color:#067b44;stop-opacity:1"
   id="stop2" />
	<stop
   offset="1"
   style="stop-color:#9f7f00;stop-opacity:1"
   id="stop4" />
</linearGradient>
<rect
   style="fill:#e4e4e4;fill-opacity:1"
   id="rect848"
   width="461.4715"
   height="364.32095"
   x="27.876703"
   y="74.425896"
   ry="51.094398" /><path
   style="fill:#064c7b;fill-opacity:1"
   d="M452,50H60C26.916,50,0,76.916,0,110v292c0,33.084,26.916,60,60,60h392  c33.084,0,60-26.916,60-60V110C512,76.916,485.084,50,452,50z M472,110v62H357V90h95C463.028,90,472,98.972,472,110z M196,300v-88  h121v88H196z M317,340v82H196v-82H317z M156,300H40v-88h116V300z M196,172V90h121v82H196z M357,212h115v88H357V212z M60,90h96v82H40  v-62C40,98.972,48.972,90,60,90z M40,402v-62h116v82H60C48.972,422,40,413.028,40,402z M452,422h-95v-82h115v62  C472,413.028,463.028,422,452,422z"
   id="path7" />
<g
   id="g9">
</g>
<g
   id="g11">
</g>
<g
   id="g13">
</g>
<g
   id="g15">
</g>
<g
   id="g17">
</g>
<g
   id="g19">
</g>
<g
   id="g21">
</g>
<g
   id="g23">
</g>
<g
   id="g25">
</g>
<g
   id="g27">
</g>
<g
   id="g29">
</g>
<g
   id="g31">
</g>
<g
   id="g33">
</g>
<g
   id="g35">
</g>
<g
   id="g37">
</g>
</svg>
